<svg id="my-svg" width="100%" xmlns="http://www.w3.org/2000/svg" xmlns:xlink="http://www.w3.org/1999/xlink" class="flowchart" style="max-width: 5676.5px; background-color: white;" viewBox="0 0 5676.5 792" role="graphics-document document" aria-roledescription="flowchart-v2"><style>#my-svg{font-family:"trebuchet ms",verdana,arial,sans-serif;font-size:16px;fill:#333;}@keyframes edge-animation-frame{from{stroke-dashoffset:0;}}@keyframes dash{to{stroke-dashoffset:0;}}#my-svg .edge-animation-slow{stroke-dasharray:9,5!important;stroke-dashoffset:900;animation:dash 50s linear infinite;stroke-linecap:round;}#my-svg .edge-animation-fast{stroke-dasharray:9,5!important;stroke-dashoffset:900;animation:dash 20s linear infinite;stroke-linecap:round;}#my-svg .error-icon{fill:#552222;}#my-svg .error-text{fill:#552222;stroke:#552222;}#my-svg .edge-thickness-normal{stroke-width:1px;}#my-svg .edge-thickness-thick{stroke-width:3.5px;}#my-svg .edge-pattern-solid{stroke-dasharray:0;}#my-svg .edge-thickness-invisible{stroke-width:0;fill:none;}#my-svg .edge-pattern-dashed{stroke-dasharray:3;}#my-svg .edge-pattern-dotted{stroke-dasharray:2;}#my-svg .marker{fill:#333333;stroke:#333333;}#my-svg .marker.cross{stroke:#333333;}#my-svg svg{font-family:"trebuchet ms",verdana,arial,sans-serif;font-size:16px;}#my-svg p{margin:0;}#my-svg .label{font-family:"trebuchet ms",verdana,arial,sans-serif;color:#333;}#my-svg .cluster-label text{fill:#333;}#my-svg .cluster-label span{color:#333;}#my-svg .cluster-label span p{background-color:transparent;}#my-svg .label text,#my-svg span{fill:#333;color:#333;}#my-svg .node rect,#my-svg .node circle,#my-svg .node ellipse,#my-svg .node polygon,#my-svg .node path{fill:#ECECFF;stroke:#9370DB;stroke-width:1px;}#my-svg .rough-node .label text,#my-svg .node .label text,#my-svg .image-shape .label,#my-svg .icon-shape .label{text-anchor:middle;}#my-svg .node .katex path{fill:#000;stroke:#000;stroke-width:1px;}#my-svg .rough-node .label,#my-svg .node .label,#my-svg .image-shape .label,#my-svg .icon-shape .label{text-align:center;}#my-svg .node.clickable{cursor:pointer;}#my-svg .root .anchor path{fill:#333333!important;stroke-width:0;stroke:#333333;}#my-svg .arrowheadPath{fill:#333333;}#my-svg .edgePath .path{stroke:#333333;stroke-width:2.0px;}#my-svg .flowchart-link{stroke:#333333;fill:none;}#my-svg .edgeLabel{background-color:rgba(232,232,232, 0.8);text-align:center;}#my-svg .edgeLabel p{background-color:rgba(232,232,232, 0.8);}#my-svg .edgeLabel rect{opacity:0.5;background-color:rgba(232,232,232, 0.8);fill:rgba(232,232,232, 0.8);}#my-svg .labelBkg{background-color:rgba(232, 232, 232, 0.5);}#my-svg .cluster rect{fill:#ffffde;stroke:#aaaa33;stroke-width:1px;}#my-svg .cluster text{fill:#333;}#my-svg .cluster span{color:#333;}#my-svg div.mermaidTooltip{position:absolute;text-align:center;max-width:200px;padding:2px;font-family:"trebuchet ms",verdana,arial,sans-serif;font-size:12px;background:hsl(80, 100%, 96.2745098039%);border:1px solid #aaaa33;border-radius:2px;pointer-events:none;z-index:100;}#my-svg .flowchartTitleText{text-anchor:middle;font-size:18px;fill:#333;}#my-svg rect.text{fill:none;stroke-width:0;}#my-svg .icon-shape,#my-svg .image-shape{background-color:rgba(232,232,232, 0.8);text-align:center;}#my-svg .icon-shape p,#my-svg .image-shape p{background-color:rgba(232,232,232, 0.8);padding:2px;}#my-svg .icon-shape rect,#my-svg .image-shape rect{opacity:0.5;background-color:rgba(232,232,232, 0.8);fill:rgba(232,232,232, 0.8);}#my-svg .label-icon{display:inline-block;height:1em;overflow:visible;vertical-align:-0.125em;}#my-svg .node .label-icon path{fill:currentColor;stroke:revert;stroke-width:revert;}#my-svg :root{--mermaid-font-family:"trebuchet ms",verdana,arial,sans-serif;}#my-svg .input&gt;*{fill:#d5e8d4!important;stroke:#82b366!important;stroke-width:2px!important;}#my-svg .input span{fill:#d5e8d4!important;stroke:#82b366!important;stroke-width:2px!important;}#my-svg .compute&gt;*{fill:#e1d5e7!important;stroke:#9673a6!important;stroke-width:2px!important;}#my-svg .compute span{fill:#e1d5e7!important;stroke:#9673a6!important;stroke-width:2px!important;}#my-svg .neutral&gt;*{fill:#f5f5f5!important;stroke:#666666!important;stroke-width:2px!important;}#my-svg .neutral span{fill:#f5f5f5!important;stroke:#666666!important;stroke-width:2px!important;}#my-svg .output&gt;*{fill:#fff2cc!important;stroke:#d6b656!important;stroke-width:2px!important;}#my-svg .output span{fill:#fff2cc!important;stroke:#d6b656!important;stroke-width:2px!important;}</style><g><marker id="my-svg_flowchart-v2-pointEnd" class="marker flowchart-v2" viewBox="0 0 10 10" refX="5" refY="5" markerUnits="userSpaceOnUse" markerWidth="8" markerHeight="8" orient="auto"><path d="M 0 0 L 10 5 L 0 10 z" class="arrowMarkerPath" style="stroke-width: 1; stroke-dasharray: 1, 0;"/></marker><marker id="my-svg_flowchart-v2-pointStart" class="marker flowchart-v2" viewBox="0 0 10 10" refX="4.5" refY="5" markerUnits="userSpaceOnUse" markerWidth="8" markerHeight="8" orient="auto"><path d="M 0 5 L 10 10 L 10 0 z" class="arrowMarkerPath" style="stroke-width: 1; stroke-dasharray: 1, 0;"/></marker><marker id="my-svg_flowchart-v2-circleEnd" class="marker flowchart-v2" viewBox="0 0 10 10" refX="11" refY="5" markerUnits="userSpaceOnUse" markerWidth="11" markerHeight="11" orient="auto"><circle cx="5" cy="5" r="5" class="arrowMarkerPath" style="stroke-width: 1; stroke-dasharray: 1, 0;"/></marker><marker id="my-svg_flowchart-v2-circleStart" class="marker flowchart-v2" viewBox="0 0 10 10" refX="-1" refY="5" markerUnits="userSpaceOnUse" markerWidth="11" markerHeight="11" orient="auto"><circle cx="5" cy="5" r="5" class="arrowMarkerPath" style="stroke-width: 1; stroke-dasharray: 1, 0;"/></marker><marker id="my-svg_flowchart-v2-crossEnd" class="marker cross flowchart-v2" viewBox="0 0 11 11" refX="12" refY="5.2" markerUnits="userSpaceOnUse" markerWidth="11" markerHeight="11" orient="auto"><path d="M 1,1 l 9,9 M 10,1 l -9,9" class="arrowMarkerPath" style="stroke-width: 2; stroke-dasharray: 1, 0;"/></marker><marker id="my-svg_flowchart-v2-crossStart" class="marker cross flowchart-v2" viewBox="0 0 11 11" refX="-1" refY="5.2" markerUnits="userSpaceOnUse" markerWidth="11" markerHeight="11" orient="auto"><path d="M 1,1 l 9,9 M 10,1 l -9,9" class="arrowMarkerPath" style="stroke-width: 2; stroke-dasharray: 1, 0;"/></marker><g class="root"><g class="clusters"/><g class="edgePaths"><path d="M236.984,280L253.75,280C270.516,280,304.047,280,336.911,280C369.776,280,401.974,280,418.073,280L434.172,280" id="L_ds_sample_0" class="edge-thickness-normal edge-pattern-solid edge-thickness-normal edge-pattern-solid flowchart-link" style=";" data-edge="true" data-et="edge" data-id="L_ds_sample_0" data-points="W3sieCI6MjM2Ljk4NDM3NSwieSI6MjgwfSx7IngiOjMzNy41NzgxMjUsInkiOjI4MH0seyJ4Ijo0MzguMTcxODc1LCJ5IjoyODB9XQ==" marker-end="url(#my-svg_flowchart-v2-pointEnd)"/><path d="M676.139,217L706.987,199C737.835,181,799.531,145,856.904,132.956C914.277,120.911,967.328,132.823,993.853,138.779L1020.378,144.734" id="L_sample_gen_0" class="edge-thickness-normal edge-pattern-solid edge-thickness-normal edge-pattern-solid flowchart-link" style=";" data-edge="true" data-et="edge" data-id="L_sample_gen_0" data-points="W3sieCI6Njc2LjEzOTM5MTQ0NzM2ODQsInkiOjIxN30seyJ4Ijo4NjEuMjI2NTYyNSwieSI6MTA5fSx7IngiOjEwMjQuMjgxMjUsInkiOjE0NS42MTA1ODE3MDk1NzE5fV0=" marker-end="url(#my-svg_flowchart-v2-pointEnd)"/><path d="M698.172,255.602L725.348,250.502C752.523,245.401,806.875,235.201,860.565,226.721C914.255,218.242,967.284,211.484,993.799,208.106L1020.313,204.727" id="L_sample_gen_2" class="edge-thickness-normal edge-pattern-solid edge-thickness-normal edge-pattern-solid flowchart-link" style=";" data-edge="true" data-et="edge" data-id="L_sample_gen_2" data-points="W3sieCI6Njk4LjE3MTg3NSwieSI6MjU1LjYwMTgyMzQ2NTExNjl9LHsieCI6ODYxLjIyNjU2MjUsInkiOjIyNX0seyJ4IjoxMDI0LjI4MTI1LCJ5IjoyMDQuMjIxMDIxMTkxODY0Nn1d" marker-end="url(#my-svg_flowchart-v2-pointEnd)"/><path d="M1357.328,183L1378.161,183C1398.995,183,1440.661,183,1481.661,183C1522.661,183,1562.995,183,1583.161,183L1603.328,183" id="L_gen_cand_0" class="edge-thickness-normal edge-pattern-solid edge-thickness-normal edge-pattern-solid flowchart-link" style=";" data-edge="true" data-et="edge" data-id="L_gen_cand_0" data-points="W3sieCI6MTM1Ny4zMjgxMjUsInkiOjE4M30seyJ4IjoxNDgyLjMyODEyNSwieSI6MTgzfSx7IngiOjE2MDcuMzI4MTI1LCJ5IjoxODN9XQ==" marker-end="url(#my-svg_flowchart-v2-pointEnd)"/><path d="M698.172,295.083L725.348,298.235C752.523,301.388,806.875,307.694,888.98,310.847C971.086,314,1080.945,314,1184.462,314C1287.979,314,1385.154,314,1481.763,314C1578.372,314,1674.417,314,1776.651,314C1878.885,314,1987.31,314,2067.881,315.928C2148.451,317.856,2201.169,321.713,2227.527,323.641L2253.886,325.569" id="L_sample_depth_0" class="edge-thickness-normal edge-pattern-solid edge-thickness-normal edge-pattern-solid flowchart-link" style=";" data-edge="true" data-et="edge" data-id="L_sample_depth_0" data-points="W3sieCI6Njk4LjE3MTg3NSwieSI6Mjk1LjA4MjUwOTEzMDY1NX0seyJ4Ijo4NjEuMjI2NTYyNSwieSI6MzE0fSx7IngiOjExOTAuODA0Njg3NSwieSI6MzE0fSx7IngiOjE0ODIuMzI4MTI1LCJ5IjozMTR9LHsieCI6MTc3MC40NjA5Mzc1LCJ5IjozMTR9LHsieCI6MjA5NS43MzQzNzUsInkiOjMxNH0seyJ4IjoyMjU3Ljg3NSwieSI6MzI1Ljg2MDYwNzI2NTMxODI3fV0=" marker-end="url(#my-svg_flowchart-v2-pointEnd)"/><path d="M1909.864,258L1940.842,274.667C1971.821,291.333,2033.778,324.667,2091.114,339.573C2148.451,354.479,2201.167,350.958,2227.526,349.198L2253.884,347.437" id="L_cand_depth_0" class="edge-thickness-normal edge-pattern-solid edge-thickness-normal edge-pattern-solid flowchart-link" style=";" data-edge="true" data-et="edge" data-id="L_cand_depth_0" data-points="W3sieCI6MTkwOS44NjM4MzkyODU3MTQyLCJ5IjoyNTh9LHsieCI6MjA5NS43MzQzNzUsInkiOjM1OH0seyJ4IjoyMjU3Ljg3NSwieSI6MzQ3LjE3MDc0OTg4ODE4NzYzfV0=" marker-end="url(#my-svg_flowchart-v2-pointEnd)"/><path d="M2562.438,337L2583.534,337C2604.63,337,2646.823,337,2688.349,337C2729.875,337,2770.734,337,2791.164,337L2811.594,337" id="L_depth_depths_0" class="edge-thickness-normal edge-pattern-solid edge-thickness-normal edge-pattern-solid flowchart-link" style=";" data-edge="true" data-et="edge" data-id="L_depth_depths_0" data-points="W3sieCI6MjU2Mi40Mzc1LCJ5IjozMzd9LHsieCI6MjY4OS4wMTU2MjUsInkiOjMzN30seyJ4IjoyODE1LjU5Mzc1LCJ5IjozMzd9XQ==" marker-end="url(#my-svg_flowchart-v2-pointEnd)"/><path d="M692.081,343L720.272,357.333C748.463,371.667,804.845,400.333,887.965,414.667C971.086,429,1080.945,429,1184.462,429C1287.979,429,1385.154,429,1481.763,429C1578.372,429,1674.417,429,1776.651,429C1878.885,429,1987.31,429,2093.926,429C2200.542,429,2305.349,429,2404.229,429C2503.109,429,2596.063,429,2685.302,429C2774.542,429,2860.068,429,2948.082,429C3036.096,429,3126.599,429,3194.779,433.208C3262.959,437.415,3308.817,445.83,3331.746,450.038L3354.675,454.245" id="L_sample_pcs_0" class="edge-thickness-normal edge-pattern-solid edge-thickness-normal edge-pattern-solid flowchart-link" style=";" data-edge="true" data-et="edge" data-id="L_sample_pcs_0" data-points="W3sieCI6NjkyLjA4MDkwMzk0Mjk1MywieSI6MzQzfSx7IngiOjg2MS4yMjY1NjI1LCJ5Ijo0Mjl9LHsieCI6MTE5MC44MDQ2ODc1LCJ5Ijo0Mjl9LHsieCI6MTQ4Mi4zMjgxMjUsInkiOjQyOX0seyJ4IjoxNzcwLjQ2MDkzNzUsInkiOjQyOX0seyJ4IjoyMDk1LjczNDM3NSwieSI6NDI5fSx7IngiOjI0MTAuMTU2MjUsInkiOjQyOX0seyJ4IjoyNjg5LjAxNTYyNSwieSI6NDI5fSx7IngiOjI5NDUuNTkzNzUsInkiOjQyOX0seyJ4IjozMjE3LjEwMTU2MjUsInkiOjQyOX0seyJ4IjozMzU4LjYwOTM3NSwieSI6NDU0Ljk2Njk2OTYzNjE0OTl9XQ==" marker-end="url(#my-svg_flowchart-v2-pointEnd)"/><path d="M3023.825,388L3056.038,409C3088.25,430,3152.676,472,3207.812,490.055C3262.948,508.111,3308.795,502.222,3331.719,499.277L3354.642,496.333" id="L_depths_pcs_0" class="edge-thickness-normal edge-pattern-solid edge-thickness-normal edge-pattern-solid flowchart-link" style=";" data-edge="true" data-et="edge" data-id="L_depths_pcs_0" data-points="W3sieCI6MzAyMy44MjQ4MTQ2MTg2NDQzLCJ5IjozODh9LHsieCI6MzIxNy4xMDE1NjI1LCJ5Ijo1MTR9LHsieCI6MzM1OC42MDkzNzUsInkiOjQ5NS44MjMxMjEyNTQ2OTUxfV0=" marker-end="url(#my-svg_flowchart-v2-pointEnd)"/><path d="M3620.547,479L3646.758,479C3672.969,479,3725.391,479,3777.146,479C3828.901,479,3879.99,479,3905.534,479L3931.078,479" id="L_pcs_pc_out_0" class="edge-thickness-normal edge-pattern-solid edge-thickness-normal edge-pattern-solid flowchart-link" style=";" data-edge="true" data-et="edge" data-id="L_pcs_pc_out_0" data-points="W3sieCI6MzYyMC41NDY4NzUsInkiOjQ3OX0seyJ4IjozNzc3LjgxMjUsInkiOjQ3OX0seyJ4IjozOTM1LjA3ODEyNSwieSI6NDc5fV0=" marker-end="url(#my-svg_flowchart-v2-pointEnd)"/><path d="M624.979,343L664.354,386.667C703.728,430.333,782.478,517.667,876.782,561.333C971.086,605,1080.945,605,1184.462,605C1287.979,605,1385.154,605,1481.763,605C1578.372,605,1674.417,605,1776.651,605C1878.885,605,1987.31,605,2093.926,605C2200.542,605,2305.349,605,2404.229,605C2503.109,605,2596.063,605,2685.302,605C2774.542,605,2860.068,605,2948.082,605C3036.096,605,3126.599,605,3217.263,605C3307.927,605,3398.753,605,3492.204,605C3585.656,605,3681.734,605,3777.651,605C3873.568,605,3969.323,605,4061.97,605C4154.617,605,4244.156,605,4311.371,608.677C4378.585,612.353,4423.475,619.706,4445.92,623.383L4468.365,627.059" id="L_sample_oracle_0" class="edge-thickness-normal edge-pattern-solid edge-thickness-normal edge-pattern-solid flowchart-link" style=";" data-edge="true" data-et="edge" data-id="L_sample_oracle_0" data-points="W3sieCI6NjI0Ljk3OTM5OTAzODQ2MTYsInkiOjM0M30seyJ4Ijo4NjEuMjI2NTYyNSwieSI6NjA1fSx7IngiOjExOTAuODA0Njg3NSwieSI6NjA1fSx7IngiOjE0ODIuMzI4MTI1LCJ5Ijo2MDV9LHsieCI6MTc3MC40NjA5Mzc1LCJ5Ijo2MDV9LHsieCI6MjA5NS43MzQzNzUsInkiOjYwNX0seyJ4IjoyNDEwLjE1NjI1LCJ5Ijo2MDV9LHsieCI6MjY4OS4wMTU2MjUsInkiOjYwNX0seyJ4IjoyOTQ1LjU5Mzc1LCJ5Ijo2MDV9LHsieCI6MzIxNy4xMDE1NjI1LCJ5Ijo2MDV9LHsieCI6MzQ4OS41NzgxMjUsInkiOjYwNX0seyJ4IjozNzc3LjgxMjUsInkiOjYwNX0seyJ4Ijo0MDY1LjA3ODEyNSwieSI6NjA1fSx7IngiOjQzMzMuNjk1MzEyNSwieSI6NjA1fSx7IngiOjQ0NzIuMzEyNSwieSI6NjI3LjcwNTc1NTc1MTM4ODh9XQ==" marker-end="url(#my-svg_flowchart-v2-pointEnd)"/><path d="M4164.624,542L4192.803,559.833C4220.981,577.667,4277.338,613.333,4327.953,631.167C4378.568,649,4423.44,649,4445.876,649L4468.313,649" id="L_pc_out_oracle_0" class="edge-thickness-normal edge-pattern-solid edge-thickness-normal edge-pattern-solid flowchart-link" style=";" data-edge="true" data-et="edge" data-id="L_pc_out_oracle_0" data-points="W3sieCI6NDE2NC42MjQ0OTQ0ODUyOTQsInkiOjU0Mn0seyJ4Ijo0MzMzLjY5NTMxMjUsInkiOjY0OX0seyJ4Ijo0NDcyLjMxMjUsInkiOjY0OX1d" marker-end="url(#my-svg_flowchart-v2-pointEnd)"/><path d="M4732.313,649L4756.003,649C4779.693,649,4827.073,649,4873.786,649C4920.5,649,4966.547,649,4989.57,649L5012.594,649" id="L_oracle_rri_0" class="edge-thickness-normal edge-pattern-solid edge-thickness-normal edge-pattern-solid flowchart-link" style=";" data-edge="true" data-et="edge" data-id="L_oracle_rri_0" data-points="W3sieCI6NDczMi4zMTI1LCJ5Ijo2NDl9LHsieCI6NDg3NC40NTMxMjUsInkiOjY0OX0seyJ4Ijo1MDE2LjU5Mzc1LCJ5Ijo2NDl9XQ==" marker-end="url(#my-svg_flowchart-v2-pointEnd)"/><path d="M639.181,217L676.189,184.167C713.196,151.333,787.211,85.667,879.149,52.833C971.086,20,1080.945,20,1184.462,20C1287.979,20,1385.154,20,1481.763,20C1578.372,20,1674.417,20,1776.651,20C1878.885,20,1987.31,20,2093.926,20C2200.542,20,2305.349,20,2404.229,20C2503.109,20,2596.063,20,2685.302,20C2774.542,20,2860.068,20,2948.082,20C3036.096,20,3126.599,20,3217.263,20C3307.927,20,3398.753,20,3492.204,20C3585.656,20,3681.734,20,3777.651,20C3873.568,20,3969.323,20,4061.97,20C4154.617,20,4244.156,20,4333.695,20C4423.234,20,4512.773,20,4602.9,20C4693.026,20,4783.74,20,4875.055,20C4966.37,20,5058.286,20,5136.904,20C5215.521,20,5280.839,20,5340.878,73.24C5400.918,126.481,5455.68,232.962,5483.061,286.202L5510.442,339.443" id="L_sample_out_0" class="edge-thickness-normal edge-pattern-solid edge-thickness-normal edge-pattern-solid flowchart-link" style=";" data-edge="true" data-et="edge" data-id="L_sample_out_0" data-points="W3sieCI6NjM5LjE4MTI4MDA0ODA3NjksInkiOjIxN30seyJ4Ijo4NjEuMjI2NTYyNSwieSI6MjB9LHsieCI6MTE5MC44MDQ2ODc1LCJ5IjoyMH0seyJ4IjoxNDgyLjMyODEyNSwieSI6MjB9LHsieCI6MTc3MC40NjA5Mzc1LCJ5IjoyMH0seyJ4IjoyMDk1LjczNDM3NSwieSI6MjB9LHsieCI6MjQxMC4xNTYyNSwieSI6MjB9LHsieCI6MjY4OS4wMTU2MjUsInkiOjIwfSx7IngiOjI5NDUuNTkzNzUsInkiOjIwfSx7IngiOjMyMTcuMTAxNTYyNSwieSI6MjB9LHsieCI6MzQ4OS41NzgxMjUsInkiOjIwfSx7IngiOjM3NzcuODEyNSwieSI6MjB9LHsieCI6NDA2NS4wNzgxMjUsInkiOjIwfSx7IngiOjQzMzMuNjk1MzEyNSwieSI6MjB9LHsieCI6NDYwMi4zMTI1LCJ5IjoyMH0seyJ4Ijo0ODc0LjQ1MzEyNSwieSI6MjB9LHsieCI6NTE1MC4yMDMxMjUsInkiOjIwfSx7IngiOjUzNDYuMTU2MjUsInkiOjIwfSx7IngiOjU1MTIuMjcxMzA2ODE4MTgyLCJ5IjozNDN9XQ==" marker-end="url(#my-svg_flowchart-v2-pointEnd)"/><path d="M1933.594,183L1960.617,183C1987.641,183,2041.688,183,2121.115,183C2200.542,183,2305.349,183,2404.229,183C2503.109,183,2596.063,183,2685.302,183C2774.542,183,2860.068,183,2948.082,183C3036.096,183,3126.599,183,3217.263,183C3307.927,183,3398.753,183,3492.204,183C3585.656,183,3681.734,183,3777.651,183C3873.568,183,3969.323,183,4061.97,183C4154.617,183,4244.156,183,4333.695,183C4423.234,183,4512.773,183,4602.9,183C4693.026,183,4783.74,183,4875.055,183C4966.37,183,5058.286,183,5136.904,183C5215.521,183,5280.839,183,5337.357,209.174C5393.876,235.348,5441.595,287.696,5465.455,313.87L5489.315,340.044" id="L_cand_out_0" class="edge-thickness-normal edge-pattern-solid edge-thickness-normal edge-pattern-solid flowchart-link" style=";" data-edge="true" data-et="edge" data-id="L_cand_out_0" data-points="W3sieCI6MTkzMy41OTM3NSwieSI6MTgzfSx7IngiOjIwOTUuNzM0Mzc1LCJ5IjoxODN9LHsieCI6MjQxMC4xNTYyNSwieSI6MTgzfSx7IngiOjI2ODkuMDE1NjI1LCJ5IjoxODN9LHsieCI6Mjk0NS41OTM3NSwieSI6MTgzfSx7IngiOjMyMTcuMTAxNTYyNSwieSI6MTgzfSx7IngiOjM0ODkuNTc4MTI1LCJ5IjoxODN9LHsieCI6Mzc3Ny44MTI1LCJ5IjoxODN9LHsieCI6NDA2NS4wNzgxMjUsInkiOjE4M30seyJ4Ijo0MzMzLjY5NTMxMjUsInkiOjE4M30seyJ4Ijo0NjAyLjMxMjUsInkiOjE4M30seyJ4Ijo0ODc0LjQ1MzEyNSwieSI6MTgzfSx7IngiOjUxNTAuMjAzMTI1LCJ5IjoxODN9LHsieCI6NTM0Ni4xNTYyNSwieSI6MTgzfSx7IngiOjU0OTIuMDA5MzMwNTY4NzIwNSwieSI6MzQzfV0=" marker-end="url(#my-svg_flowchart-v2-pointEnd)"/><path d="M3075.594,337L3099.178,337C3122.763,337,3169.932,337,3238.93,337C3307.927,337,3398.753,337,3492.204,337C3585.656,337,3681.734,337,3777.651,337C3873.568,337,3969.323,337,4061.97,337C4154.617,337,4244.156,337,4333.695,337C4423.234,337,4512.773,337,4602.9,337C4693.026,337,4783.74,337,4875.055,337C4966.37,337,5058.286,337,5136.904,337C5215.521,337,5280.839,337,5323.249,339.89C5365.659,342.78,5385.162,348.559,5394.913,351.449L5404.665,354.339" id="L_depths_out_0" class="edge-thickness-normal edge-pattern-solid edge-thickness-normal edge-pattern-solid flowchart-link" style=";" data-edge="true" data-et="edge" data-id="L_depths_out_0" data-points="W3sieCI6MzA3NS41OTM3NSwieSI6MzM3fSx7IngiOjMyMTcuMTAxNTYyNSwieSI6MzM3fSx7IngiOjM0ODkuNTc4MTI1LCJ5IjozMzd9LHsieCI6Mzc3Ny44MTI1LCJ5IjozMzd9LHsieCI6NDA2NS4wNzgxMjUsInkiOjMzN30seyJ4Ijo0MzMzLjY5NTMxMjUsInkiOjMzN30seyJ4Ijo0NjAyLjMxMjUsInkiOjMzN30seyJ4Ijo0ODc0LjQ1MzEyNSwieSI6MzM3fSx7IngiOjUxNTAuMjAzMTI1LCJ5IjozMzd9LHsieCI6NTM0Ni4xNTYyNSwieSI6MzM3fSx7IngiOjU0MDguNSwieSI6MzU1LjQ3NTIyMzM5NTYxMzM0fV0=" marker-end="url(#my-svg_flowchart-v2-pointEnd)"/><path d="M4195.078,479L4218.181,479C4241.284,479,4287.49,479,4355.362,479C4423.234,479,4512.773,479,4602.9,479C4693.026,479,4783.74,479,4875.055,479C4966.37,479,5058.286,479,5136.904,479C5215.521,479,5280.839,479,5325.711,473.603C5370.583,468.206,5395.009,457.411,5407.222,452.014L5419.435,446.617" id="L_pc_out_out_0" class="edge-thickness-normal edge-pattern-solid edge-thickness-normal edge-pattern-solid flowchart-link" style=";" data-edge="true" data-et="edge" data-id="L_pc_out_out_0" data-points="W3sieCI6NDE5NS4wNzgxMjUsInkiOjQ3OX0seyJ4Ijo0MzMzLjY5NTMxMjUsInkiOjQ3OX0seyJ4Ijo0NjAyLjMxMjUsInkiOjQ3OX0seyJ4Ijo0ODc0LjQ1MzEyNSwieSI6NDc5fSx7IngiOjUxNTAuMjAzMTI1LCJ5Ijo0Nzl9LHsieCI6NTM0Ni4xNTYyNSwieSI6NDc5fSx7IngiOjU0MjMuMDkzNzUsInkiOjQ0NX1d" marker-end="url(#my-svg_flowchart-v2-pointEnd)"/><path d="M5283.813,649L5294.203,649C5304.594,649,5325.375,649,5361.01,615.532C5396.645,582.064,5447.134,515.129,5472.378,481.661L5497.622,448.193" id="L_rri_out_0" class="edge-thickness-normal edge-pattern-solid edge-thickness-normal edge-pattern-solid flowchart-link" style=";" data-edge="true" data-et="edge" data-id="L_rri_out_0" data-points="W3sieCI6NTI4My44MTI1LCJ5Ijo2NDl9LHsieCI6NTM0Ni4xNTYyNSwieSI6NjQ5fSx7IngiOjU1MDAuMDMxMjUsInkiOjQ0NX1d" marker-end="url(#my-svg_flowchart-v2-pointEnd)"/></g><g class="edgeLabels"><g class="edgeLabel" transform="translate(337.578125, 280)"><g class="label" data-id="L_ds_sample_0" transform="translate(-75.59375, -12)"><foreignObject width="151.1875" height="24"><div xmlns="http://www.w3.org/1999/xhtml" class="labelBkg" style="display: table-cell; white-space: nowrap; line-height: 1.5; max-width: 200px; text-align: center;"><span class="edgeLabel"><p>(\texttt{efm}) snippets</p></span></div></foreignObject></g></g><g class="edgeLabel" transform="translate(840.85234, 120.88854)"><g class="label" data-id="L_sample_gen_0" transform="translate(-138.0546875, -48)"><foreignObject width="276.109375" height="96"><div xmlns="http://www.w3.org/1999/xhtml" class="labelBkg" style="display: table; white-space: break-spaces; line-height: 1.5; max-width: 200px; text-align: center; width: 200px;"><span class="edgeLabel"><p>(\mathbf{T}_{rig}^{w}(t)\in\mathrm{SE}(3)^{B\times T},\ \mathcal{P}_t\in\mathbb{R}^{P_t\times 3})</p></span></div></foreignObject></g></g><g class="edgeLabel" transform="translate(861.2265625, 225)"><g class="label" data-id="L_sample_gen_2" transform="translate(-137.796875, -48)"><foreignObject width="275.59375" height="96"><div xmlns="http://www.w3.org/1999/xhtml" class="labelBkg" style="display: table; white-space: break-spaces; line-height: 1.5; max-width: 200px; text-align: center; width: 200px;"><span class="edgeLabel"><p>(\mathcal{M}<em>{GT}=(\mathbf{V}^w!\in!\mathbb{R}^{V\times 3},\mathcal{F}</em>{GT}!\in!\mathbb{N}^{F\times 3}))</p></span></div></foreignObject></g></g><g class="edgeLabel" transform="translate(1482.328125, 183)"><g class="label" data-id="L_gen_cand_0" transform="translate(-100, -60)"><foreignObject width="200" height="120"><div xmlns="http://www.w3.org/1999/xhtml" class="labelBkg" style="display: table; white-space: break-spaces; line-height: 1.5; max-width: 200px; text-align: center; width: 200px;"><span class="edgeLabel"><p>(\mathbf{T}<em>{r}^{w}\in\mathrm{SE}(3)^{B},\ \mathbf{T}</em>{q}^{w}\in\mathrm{SE}(3)^{N})</p></span></div></foreignObject></g></g><g class="edgeLabel" transform="translate(1482.328125, 314)"><g class="label" data-id="L_sample_depth_0" transform="translate(-68.4765625, -12)"><foreignObject width="136.953125" height="24"><div xmlns="http://www.w3.org/1999/xhtml" class="labelBkg" style="display: table-cell; white-space: nowrap; line-height: 1.5; max-width: 200px; text-align: center;"><span class="edgeLabel"><p>(\mathcal{M}_{GT})</p></span></div></foreignObject></g></g><g class="edgeLabel" transform="translate(2074.35172, 346.49594)"><g class="label" data-id="L_cand_depth_0" transform="translate(-137.140625, -24)"><foreignObject width="274.28125" height="48"><div xmlns="http://www.w3.org/1999/xhtml" class="labelBkg" style="display: table; white-space: break-spaces; line-height: 1.5; max-width: 200px; text-align: center; width: 200px;"><span class="edgeLabel"><p>(\texttt{views}:\texttt{CameraTW}^{N},\ \mathbf{T}_{q}^{w})</p></span></div></foreignObject></g></g><g class="edgeLabel" transform="translate(2689.015625, 337)"><g class="label" data-id="L_depth_depths_0" transform="translate(-101.578125, -24)"><foreignObject width="203.15625" height="48"><div xmlns="http://www.w3.org/1999/xhtml" class="labelBkg" style="display: table; white-space: break-spaces; line-height: 1.5; max-width: 200px; text-align: center; width: 200px;"><span class="edgeLabel"><p>(D_q\in\mathbb{R}^{N\times H\times W})</p></span></div></foreignObject></g></g><g class="edgeLabel" transform="translate(2095.734375, 429)"><g class="label" data-id="L_sample_pcs_0" transform="translate(-52.9140625, -12)"><foreignObject width="105.828125" height="24"><div xmlns="http://www.w3.org/1999/xhtml" class="labelBkg" style="display: table-cell; white-space: nowrap; line-height: 1.5; max-width: 200px; text-align: center;"><span class="edgeLabel"><p>(\mathcal{P}_t)</p></span></div></foreignObject></g></g><g class="edgeLabel" transform="translate(3180.22141, 489.95728)"><g class="label" data-id="L_depths_pcs_0" transform="translate(-116.5078125, -36)"><foreignObject width="233.015625" height="72"><div xmlns="http://www.w3.org/1999/xhtml" class="labelBkg" style="display: table; white-space: break-spaces; line-height: 1.5; max-width: 200px; text-align: center; width: 200px;"><span class="edgeLabel"><p>(D_q,\ \texttt{p3d_cameras}\Rightarrow C_q)</p></span></div></foreignObject></g></g><g class="edgeLabel" transform="translate(3777.8125, 479)"><g class="label" data-id="L_pcs_pc_out_0" transform="translate(-132.265625, -36)"><foreignObject width="264.53125" height="72"><div xmlns="http://www.w3.org/1999/xhtml" class="labelBkg" style="display: table; white-space: break-spaces; line-height: 1.5; max-width: 200px; text-align: center; width: 200px;"><span class="edgeLabel"><p>(\mathcal{P}<em>q\in\mathbb{R}^{N\times P</em>{\max}\times 3},\ \texttt{lengths}\in\mathbb{N}^{N})</p></span></div></foreignObject></g></g><g class="edgeLabel" transform="translate(2689.015625, 605)"><g class="label" data-id="L_sample_oracle_0" transform="translate(-68.4765625, -12)"><foreignObject width="136.953125" height="24"><div xmlns="http://www.w3.org/1999/xhtml" class="labelBkg" style="display: table-cell; white-space: nowrap; line-height: 1.5; max-width: 200px; text-align: center;"><span class="edgeLabel"><p>(\mathcal{M}_{GT})</p></span></div></foreignObject></g></g><g class="edgeLabel" transform="translate(4333.6953125, 649)"><g class="label" data-id="L_pc_out_oracle_0" transform="translate(-113.6171875, -24)"><foreignObject width="227.234375" height="48"><div xmlns="http://www.w3.org/1999/xhtml" class="labelBkg" style="display: table; white-space: break-spaces; line-height: 1.5; max-width: 200px; text-align: center; width: 200px;"><span class="edgeLabel"><p>(\mathcal{P}_t,\ \mathcal{P}_q,\ \texttt{extend}\in\mathbb{R}^{6})</p></span></div></foreignObject></g></g><g class="edgeLabel" transform="translate(4874.453125, 649)"><g class="label" data-id="L_oracle_rri_0" transform="translate(-117.140625, -12)"><foreignObject width="234.28125" height="24"><div xmlns="http://www.w3.org/1999/xhtml" class="labelBkg" style="display: table; white-space: break-spaces; line-height: 1.5; max-width: 200px; text-align: center; width: 200px;"><span class="edgeLabel"><p>(\mathrm{RRI}\in\mathbb{R}^{N})</p></span></div></foreignObject></g></g><g class="edgeLabel" transform="translate(3217.1015625, 20)"><g class="label" data-id="L_sample_out_0" transform="translate(-56.0234375, -12)"><foreignObject width="112.046875" height="24"><div xmlns="http://www.w3.org/1999/xhtml" class="labelBkg" style="display: table-cell; white-space: nowrap; line-height: 1.5; max-width: 200px; text-align: center;"><span class="edgeLabel"><p>(\texttt{sample})</p></span></div></foreignObject></g></g><g class="edgeLabel" transform="translate(3777.8125, 183)"><g class="label" data-id="L_cand_out_0" transform="translate(-68.9296875, -12)"><foreignObject width="137.859375" height="24"><div xmlns="http://www.w3.org/1999/xhtml" class="labelBkg" style="display: table-cell; white-space: nowrap; line-height: 1.5; max-width: 200px; text-align: center;"><span class="edgeLabel"><p>(\texttt{candidates})</p></span></div></foreignObject></g></g><g class="edgeLabel" transform="translate(4333.6953125, 337)"><g class="label" data-id="L_depths_out_0" transform="translate(-54.2578125, -12)"><foreignObject width="108.515625" height="24"><div xmlns="http://www.w3.org/1999/xhtml" class="labelBkg" style="display: table-cell; white-space: nowrap; line-height: 1.5; max-width: 200px; text-align: center;"><span class="edgeLabel"><p>(\texttt{depths})</p></span></div></foreignObject></g></g><g class="edgeLabel" transform="translate(4874.453125, 479)"><g class="label" data-id="L_pc_out_out_0" transform="translate(-81.828125, -12)"><foreignObject width="163.65625" height="24"><div xmlns="http://www.w3.org/1999/xhtml" class="labelBkg" style="display: table-cell; white-space: nowrap; line-height: 1.5; max-width: 200px; text-align: center;"><span class="edgeLabel"><p>(\texttt{candidate_pcs})</p></span></div></foreignObject></g></g><g class="edgeLabel" transform="translate(5346.15625, 649)"><g class="label" data-id="L_rri_out_0" transform="translate(-37.34375, -12)"><foreignObject width="74.6875" height="24"><div xmlns="http://www.w3.org/1999/xhtml" class="labelBkg" style="display: table-cell; white-space: nowrap; line-height: 1.5; max-width: 200px; text-align: center;"><span class="edgeLabel"><p>(\texttt{rri})</p></span></div></foreignObject></g></g></g><g class="nodes"><g class="node default" id="flowchart-%%-0" transform="translate(122.4921875, 164)"><rect class="basic label-container" style="" x="-44.2265625" y="-27" width="88.453125" height="54"/><g class="label" style="" transform="translate(-14.2265625, -12)"><rect/><foreignObject width="28.453125" height="24"><div xmlns="http://www.w3.org/1999/xhtml" style="display: table-cell; white-space: nowrap; line-height: 1.5; max-width: 200px; text-align: center;"><span class="nodeLabel"><p>%%</p></span></div></foreignObject></g></g><g class="node default input" id="flowchart-ds-2" transform="translate(122.4921875, 280)"><rect class="basic label-container" style="fill:#d5e8d4 !important;stroke:#82b366 !important;stroke-width:2px !important" x="-114.4921875" y="-39" width="228.984375" height="78"/><g class="label" style="" transform="translate(-84.4921875, -24)"><rect/><foreignObject width="168.984375" height="48"><div xmlns="http://www.w3.org/1999/xhtml" style="display: table-cell; white-space: nowrap; line-height: 1.5; max-width: 200px; text-align: center;"><span class="nodeLabel"><p>AseEfmDataset<br />(\texttt{IterableDataset})</p></span></div></foreignObject></g></g><g class="node default input" id="flowchart-sample-3" transform="translate(568.171875, 280)"><rect class="basic label-container" style="fill:#d5e8d4 !important;stroke:#82b366 !important;stroke-width:2px !important" x="-130" y="-63" width="260" height="126"/><g class="label" style="" transform="translate(-100, -48)"><rect/><foreignObject width="200" height="96"><div xmlns="http://www.w3.org/1999/xhtml" style="display: table; white-space: break-spaces; line-height: 1.5; max-width: 200px; text-align: center; width: 200px;"><span class="nodeLabel"><p>EfmSnippetView<br />(\texttt{efm}:\texttt{dict})<br />(\mathcal{M}_{GT}) (GT mesh, optional crop)</p></span></div></foreignObject></g></g><g class="node default compute" id="flowchart-gen-4" transform="translate(1190.8046875, 183)"><rect class="basic label-container" style="fill:#e1d5e7 !important;stroke:#9673a6 !important;stroke-width:2px !important" x="-166.5234375" y="-39" width="333.046875" height="78"/><g class="label" style="" transform="translate(-136.5234375, -24)"><rect/><foreignObject width="273.046875" height="48"><div xmlns="http://www.w3.org/1999/xhtml" style="display: table; white-space: break-spaces; line-height: 1.5; max-width: 200px; text-align: center; width: 200px;"><span class="nodeLabel"><p>CandidateViewGenerator<br />(\texttt{generate_from_typed_sample})</p></span></div></foreignObject></g></g><g class="node default neutral" id="flowchart-cand-5" transform="translate(1770.4609375, 183)"><rect class="basic label-container" style="fill:#f5f5f5 !important;stroke:#666666 !important;stroke-width:2px !important" x="-163.1328125" y="-75" width="326.265625" height="150"/><g class="label" style="" transform="translate(-133.1328125, -60)"><rect/><foreignObject width="266.265625" height="120"><div xmlns="http://www.w3.org/1999/xhtml" style="display: table; white-space: break-spaces; line-height: 1.5; max-width: 200px; text-align: center; width: 200px;"><span class="nodeLabel"><p>CandidateSamplingResult<br />(\texttt{views}:\texttt{CameraTW}^{N})<br />(q\in\mathcal{Q}\subset\mathrm{SE}(3):\ \mathbf{T}<em>{q}^{w}) + (\mathbf{T}</em>{r}^{w})</p></span></div></foreignObject></g></g><g class="node default compute" id="flowchart-depth-6" transform="translate(2410.15625, 337)"><rect class="basic label-container" style="fill:#e1d5e7 !important;stroke:#9673a6 !important;stroke-width:2px !important" x="-152.28125" y="-39" width="304.5625" height="78"/><g class="label" style="" transform="translate(-122.28125, -24)"><rect/><foreignObject width="244.5625" height="48"><div xmlns="http://www.w3.org/1999/xhtml" style="display: table; white-space: break-spaces; line-height: 1.5; max-width: 200px; text-align: center; width: 200px;"><span class="nodeLabel"><p>CandidateDepthRenderer<br />(\texttt{Pytorch3DDepthRenderer})</p></span></div></foreignObject></g></g><g class="node default neutral" id="flowchart-depths-7" transform="translate(2945.59375, 337)"><rect class="basic label-container" style="fill:#f5f5f5 !important;stroke:#666666 !important;stroke-width:2px !important" x="-130" y="-51" width="260" height="102"/><g class="label" style="" transform="translate(-100, -36)"><rect/><foreignObject width="200" height="72"><div xmlns="http://www.w3.org/1999/xhtml" style="display: table; white-space: break-spaces; line-height: 1.5; max-width: 200px; text-align: center; width: 200px;"><span class="nodeLabel"><p>CandidateDepths<br />(D_{q}) + (\texttt{valid_mask})</p></span></div></foreignObject></g></g><g class="node default compute" id="flowchart-pcs-8" transform="translate(3489.578125, 479)"><rect class="basic label-container" style="fill:#e1d5e7 !important;stroke:#9673a6 !important;stroke-width:2px !important" x="-130.96875" y="-63" width="261.9375" height="126"/><g class="label" style="" transform="translate(-100.96875, -48)"><rect/><foreignObject width="201.9375" height="96"><div xmlns="http://www.w3.org/1999/xhtml" style="display: table; white-space: break-spaces; line-height: 1.5; max-width: 200px; text-align: center; width: 200px;"><span class="nodeLabel"><p>build_candidate_pointclouds<br />(\mathcal{P}<em>q=\Pi^{-1}(D_q,C_q,\mathbf{T}</em>{q}^{w}))</p></span></div></foreignObject></g></g><g class="node default neutral" id="flowchart-pc_out-9" transform="translate(4065.078125, 479)"><rect class="basic label-container" style="fill:#f5f5f5 !important;stroke:#666666 !important;stroke-width:2px !important" x="-130" y="-63" width="260" height="126"/><g class="label" style="" transform="translate(-100, -48)"><rect/><foreignObject width="200" height="96"><div xmlns="http://www.w3.org/1999/xhtml" style="display: table; white-space: break-spaces; line-height: 1.5; max-width: 200px; text-align: center; width: 200px;"><span class="nodeLabel"><p>CandidatePointClouds<br />(\mathcal{P}_q), (\mathcal{P}_t), (\texttt{extend})</p></span></div></foreignObject></g></g><g class="node default compute" id="flowchart-oracle-10" transform="translate(4602.3125, 649)"><rect class="basic label-container" style="fill:#e1d5e7 !important;stroke:#9673a6 !important;stroke-width:2px !important" x="-130" y="-135" width="260" height="270"/><g class="label" style="" transform="translate(-100, -120)"><rect/><foreignObject width="200" height="240"><div xmlns="http://www.w3.org/1999/xhtml" style="display: table; white-space: break-spaces; line-height: 1.5; max-width: 200px; text-align: center; width: 200px;"><span class="nodeLabel"><p>OracleRRI<br />(\mathrm{RRI}(q)=\frac{\mathrm{CD}(\mathcal{P}<em>t,\mathcal{M}</em>{GT})-\mathrm{CD}(\mathcal{P}<em>{t\cup q},\mathcal{M}</em>{GT})}{\mathrm{CD}(\mathcal{P}<em>t,\mathcal{M}</em>{GT})+\epsilon})</p></span></div></foreignObject></g></g><g class="node default output" id="flowchart-rri-11" transform="translate(5150.203125, 649)"><rect class="basic label-container" style="fill:#fff2cc !important;stroke:#d6b656 !important;stroke-width:2px !important" x="-133.609375" y="-51" width="267.21875" height="102"/><g class="label" style="" transform="translate(-103.609375, -36)"><rect/><foreignObject width="207.21875" height="72"><div xmlns="http://www.w3.org/1999/xhtml" style="display: table; white-space: break-spaces; line-height: 1.5; max-width: 200px; text-align: center; width: 200px;"><span class="nodeLabel"><p>RriResult<br />(\texttt{rri}\in\mathbb{R}^{N})<br />(\texttt{pm_dist_before/after})</p></span></div></foreignObject></g></g><g class="node default output" id="flowchart-out-12" transform="translate(5538.5, 394)"><rect class="basic label-container" style="fill:#fff2cc !important;stroke:#d6b656 !important;stroke-width:2px !important" x="-130" y="-51" width="260" height="102"/><g class="label" style="" transform="translate(-100, -36)"><rect/><foreignObject width="200" height="72"><div xmlns="http://www.w3.org/1999/xhtml" style="display: table; white-space: break-spaces; line-height: 1.5; max-width: 200px; text-align: center; width: 200px;"><span class="nodeLabel"><p>OracleRriLabelBatch<br />(sample, candidates, depths, candidate_pcs, rri)</p></span></div></foreignObject></g></g></g></g></g></svg>