<?xml version="1.0" encoding="UTF-8" standalone="no"?>
<!DOCTYPE svg PUBLIC "-//W3C//DTD SVG 1.1//EN"
 "http://www.w3.org/Graphics/SVG/1.1/DTD/svg11.dtd">
<!-- Generated by graphviz version 2.43.0 (0)
 -->
<!-- Title: vin_v2_arch Pages: 1 -->
<svg width="4381pt" height="570pt"
 viewBox="0.00 0.00 4381.00 570.00" xmlns="http://www.w3.org/2000/svg" xmlns:xlink="http://www.w3.org/1999/xlink">
<g id="graph0" class="graph" transform="scale(1 1) rotate(0) translate(4 566)">
<title>vin_v2_arch</title>
<g id="clust1" class="cluster">
<title>cluster_inputs</title>
<path fill="transparent" stroke="#c7c7c7" stroke-dasharray="5,2" d="M20,-145C20,-145 272,-145 272,-145 278,-145 284,-151 284,-157 284,-157 284,-387 284,-387 284,-393 278,-399 272,-399 272,-399 20,-399 20,-399 14,-399 8,-393 8,-387 8,-387 8,-157 8,-157 8,-151 14,-145 20,-145"/>
<text text-anchor="middle" x="146" y="-387" font-family="Helvetica,sans-Serif" font-size="10.00">Inputs</text>
</g>
<g id="clust2" class="cluster">
<title>cluster_voxel</title>
<path fill="transparent" stroke="#c7c7c7" stroke-dasharray="5,2" d="M321,-395C321,-395 2309,-395 2309,-395 2315,-395 2321,-401 2321,-407 2321,-407 2321,-542 2321,-542 2321,-548 2315,-554 2309,-554 2309,-554 321,-554 321,-554 315,-554 309,-548 309,-542 309,-542 309,-407 309,-407 309,-401 315,-395 321,-395"/>
<text text-anchor="middle" x="1315" y="-542" font-family="Helvetica,sans-Serif" font-size="10.00">Voxel / EVL branch</text>
</g>
<g id="clust3" class="cluster">
<title>cluster_semidense</title>
<path fill="transparent" stroke="#c7c7c7" stroke-dasharray="5,2" d="M1693.5,-255C1693.5,-255 3060.5,-255 3060.5,-255 3066.5,-255 3072.5,-261 3072.5,-267 3072.5,-267 3072.5,-375 3072.5,-375 3072.5,-381 3066.5,-387 3060.5,-387 3060.5,-387 1693.5,-387 1693.5,-387 1687.5,-387 1681.5,-381 1681.5,-375 1681.5,-375 1681.5,-267 1681.5,-267 1681.5,-261 1687.5,-255 1693.5,-255"/>
<text text-anchor="middle" x="2377" y="-375" font-family="Helvetica,sans-Serif" font-size="10.00">Semidense view conditioning</text>
</g>
<g id="clust4" class="cluster">
<title>cluster_optional</title>
<path fill="transparent" stroke="#c7c7c7" stroke-dasharray="5,2" d="M2885,-8C2885,-8 3167,-8 3167,-8 3173,-8 3179,-14 3179,-20 3179,-20 3179,-128 3179,-128 3179,-134 3173,-140 3167,-140 3167,-140 2885,-140 2885,-140 2879,-140 2873,-134 2873,-128 2873,-128 2873,-20 2873,-20 2873,-14 2879,-8 2885,-8"/>
<text text-anchor="middle" x="3026" y="-128" font-family="Helvetica,sans-Serif" font-size="10.00">Optional context</text>
</g>
<g id="clust5" class="cluster">
<title>cluster_head</title>
<path fill="transparent" stroke="#c7c7c7" stroke-dasharray="5,2" d="M3216,-255C3216,-255 4353,-255 4353,-255 4359,-255 4365,-261 4365,-267 4365,-267 4365,-314 4365,-314 4365,-320 4359,-326 4353,-326 4353,-326 3216,-326 3216,-326 3210,-326 3204,-320 3204,-314 3204,-314 3204,-267 3204,-267 3204,-261 3210,-255 3216,-255"/>
<text text-anchor="middle" x="3784.5" y="-314" font-family="Helvetica,sans-Serif" font-size="10.00">Scoring head</text>
</g>
<!-- efm -->
<g id="node1" class="node">
<title>efm</title>
<path fill="#ffffff" stroke="#3b3b3b" d="M241,-189C241,-189 51,-189 51,-189 45,-189 39,-183 39,-177 39,-177 39,-165 39,-165 39,-159 45,-153 51,-153 51,-153 241,-153 241,-153 247,-153 253,-159 253,-165 253,-165 253,-177 253,-177 253,-183 247,-189 241,-189"/>
<text text-anchor="middle" x="146" y="-168.5" font-family="Helvetica,sans-Serif" font-size="10.00">EFM snippet\n(poses, semidense points)</text>
</g>
<!-- proj -->
<g id="node13" class="node">
<title>proj</title>
<path fill="#ffffff" stroke="#3b3b3b" d="M1927.5,-309C1927.5,-309 1701.5,-309 1701.5,-309 1695.5,-309 1689.5,-303 1689.5,-297 1689.5,-297 1689.5,-285 1689.5,-285 1689.5,-279 1695.5,-273 1701.5,-273 1701.5,-273 1927.5,-273 1927.5,-273 1933.5,-273 1939.5,-279 1939.5,-285 1939.5,-285 1939.5,-297 1939.5,-297 1939.5,-303 1933.5,-309 1927.5,-309"/>
<text text-anchor="middle" x="1814.5" y="-288.5" font-family="Helvetica,sans-Serif" font-size="10.00">Project semidense points\ninto candidate views</text>
</g>
<!-- efm&#45;&gt;proj -->
<g id="edge12" class="edge">
<title>efm&#45;&gt;proj</title>
<path fill="none" stroke="#3b3b3b" d="M253.1,-154.15C333.43,-142.84 446.62,-130 546.5,-130 546.5,-130 546.5,-130 1294,-130 1480.02,-130 1687.39,-225.35 1773.09,-269.29"/>
<polygon fill="#3b3b3b" stroke="#3b3b3b" points="1771.88,-271.82 1780.27,-273 1774.45,-266.84 1771.88,-271.82"/>
</g>
<!-- traj -->
<g id="node19" class="node">
<title>traj</title>
<path fill="#ffffff" stroke="#3b3b3b" d="M3132,-113C3132,-113 2920,-113 2920,-113 2914,-113 2908,-107 2908,-101 2908,-101 2908,-89 2908,-89 2908,-83 2914,-77 2920,-77 2920,-77 3132,-77 3132,-77 3138,-77 3144,-83 3144,-89 3144,-89 3144,-101 3144,-101 3144,-107 3138,-113 3132,-113"/>
<text text-anchor="middle" x="3026" y="-92.5" font-family="Helvetica,sans-Serif" font-size="10.00">Trajectory encoder\nrig pose history → z^traj</text>
</g>
<!-- efm&#45;&gt;traj -->
<g id="edge21" class="edge">
<title>efm&#45;&gt;traj</title>
<path fill="none" stroke="#3b3b3b" d="M193.85,-152.93C267.67,-126.14 416.08,-79 546.5,-79 546.5,-79 546.5,-79 2703.5,-79 2768.22,-79 2840.17,-82.27 2899.57,-85.86"/>
<polygon fill="#3b3b3b" stroke="#3b3b3b" points="2899.71,-88.67 2907.87,-86.37 2900.05,-83.08 2899.71,-88.67"/>
</g>
<!-- pointnext -->
<g id="node20" class="node">
<title>pointnext</title>
<path fill="#ffffff" stroke="#3b3b3b" d="M3159,-52C3159,-52 2893,-52 2893,-52 2887,-52 2881,-46 2881,-40 2881,-40 2881,-28 2881,-28 2881,-22 2887,-16 2893,-16 2893,-16 3159,-16 3159,-16 3165,-16 3171,-22 3171,-28 3171,-28 3171,-40 3171,-40 3171,-46 3165,-52 3159,-52"/>
<text text-anchor="middle" x="3026" y="-31.5" font-family="Helvetica,sans-Serif" font-size="10.00">Point encoder (PointNeXt)\nsemidense points → z^point</text>
</g>
<!-- efm&#45;&gt;pointnext -->
<g id="edge22" class="edge">
<title>efm&#45;&gt;pointnext</title>
<path fill="none" stroke="#3b3b3b" d="M170.56,-152.99C200.9,-130.72 256.05,-93.27 309,-73 409.33,-34.59 439.07,-28 546.5,-28 546.5,-28 546.5,-28 2703.5,-28 2758.72,-28 2819.27,-28.9 2872.79,-30"/>
<polygon fill="#3b3b3b" stroke="#3b3b3b" points="2872.92,-32.8 2880.97,-30.17 2873.03,-27.2 2872.92,-32.8"/>
</g>
<!-- cands -->
<g id="node2" class="node">
<title>cands</title>
<path fill="#ffffff" stroke="#3b3b3b" d="M240,-250C240,-250 52,-250 52,-250 46,-250 40,-244 40,-238 40,-238 40,-226 40,-226 40,-220 46,-214 52,-214 52,-214 240,-214 240,-214 246,-214 252,-220 252,-226 252,-226 252,-238 252,-238 252,-244 246,-250 240,-250"/>
<text text-anchor="middle" x="146" y="-229.5" font-family="Helvetica,sans-Serif" font-size="10.00">Candidate poses\nPoseTW (world←cam)</text>
</g>
<!-- attn_global -->
<g id="node9" class="node">
<title>attn_global</title>
<path fill="#ffffff" stroke="#3b3b3b" d="M1949,-439C1949,-439 1680,-439 1680,-439 1674,-439 1668,-433 1668,-427 1668,-427 1668,-415 1668,-415 1668,-409 1674,-403 1680,-403 1680,-403 1949,-403 1949,-403 1955,-403 1961,-409 1961,-415 1961,-415 1961,-427 1961,-427 1961,-433 1955,-439 1949,-439"/>
<text text-anchor="middle" x="1814.5" y="-418.5" font-family="Helvetica,sans-Serif" font-size="10.00">Pose&#45;conditioned MHCA\nQ: pose_emb, KV: voxel tokens</text>
</g>
<!-- cands&#45;&gt;attn_global -->
<g id="edge8" class="edge">
<title>cands&#45;&gt;attn_global</title>
<path fill="none" stroke="#3b3b3b" d="M236.63,-250.05C317.32,-264.72 439.35,-283 546.5,-283 546.5,-283 546.5,-283 1294,-283 1467.26,-283 1499.62,-352.14 1668,-393 1679.89,-395.89 1692.39,-398.67 1704.86,-401.28"/>
<polygon fill="#3b3b3b" stroke="#3b3b3b" points="1704.64,-404.1 1713.04,-402.98 1705.78,-398.61 1704.64,-404.1"/>
</g>
<!-- sem_attn -->
<g id="node17" class="node">
<title>sem_attn</title>
<path fill="#ffffff" stroke="#3b3b3b" d="M2828,-299C2828,-299 2577,-299 2577,-299 2571,-299 2565,-293 2565,-287 2565,-287 2565,-275 2565,-275 2565,-269 2571,-263 2577,-263 2577,-263 2828,-263 2828,-263 2834,-263 2840,-269 2840,-275 2840,-275 2840,-287 2840,-287 2840,-293 2834,-299 2828,-299"/>
<text text-anchor="middle" x="2702.5" y="-278.5" font-family="Helvetica,sans-Serif" font-size="10.00">Semidense frustum MHCA\nQ: pose_emb, KV: tokens</text>
</g>
<!-- cands&#45;&gt;sem_attn -->
<g id="edge20" class="edge">
<title>cands&#45;&gt;sem_attn</title>
<path fill="none" stroke="#3b3b3b" d="M252.14,-232C332.71,-232 446.62,-232 546.5,-232 546.5,-232 546.5,-232 1294,-232 1840.73,-232 1979.55,-201.08 2524,-251 2549.81,-253.37 2577.52,-257.35 2603.19,-261.65"/>
<polygon fill="#3b3b3b" stroke="#3b3b3b" points="2602.74,-264.41 2611.09,-262.99 2603.68,-258.89 2602.74,-264.41"/>
</g>
<!-- concat -->
<g id="node21" class="node">
<title>concat</title>
<path fill="#ffffff" stroke="#3b3b3b" d="M3805,-299C3805,-299 3224,-299 3224,-299 3218,-299 3212,-293 3212,-287 3212,-287 3212,-275 3212,-275 3212,-269 3218,-263 3224,-263 3224,-263 3805,-263 3805,-263 3811,-263 3817,-269 3817,-275 3817,-275 3817,-287 3817,-287 3817,-293 3811,-299 3805,-299"/>
<text text-anchor="middle" x="3514.5" y="-278.5" font-family="Helvetica,sans-Serif" font-size="10.00">Feature fusion\nh_i = concat(pose_emb_i,\n global_feat_i, s_i^proj,\n s_i^frustum, z^traj, z^point,\n voxel_valid_frac_i)</text>
</g>
<!-- cands&#45;&gt;concat -->
<g id="edge29" class="edge">
<title>cands&#45;&gt;concat</title>
<path fill="none" stroke="#3b3b3b" d="M236.63,-213.95C317.32,-199.28 439.35,-181 546.5,-181 546.5,-181 546.5,-181 1294,-181 1603.57,-181 1680.93,-174 1990.5,-174 1990.5,-174 1990.5,-174 3027,-174 3186.03,-174 3367.62,-229.21 3457.3,-260.31"/>
<polygon fill="#3b3b3b" stroke="#3b3b3b" points="3456.43,-262.98 3464.9,-262.97 3458.27,-257.69 3456.43,-262.98"/>
</g>
<!-- cams -->
<g id="node3" class="node">
<title>cams</title>
<path fill="#ffffff" stroke="#3b3b3b" d="M244.5,-311C244.5,-311 47.5,-311 47.5,-311 41.5,-311 35.5,-305 35.5,-299 35.5,-299 35.5,-287 35.5,-287 35.5,-281 41.5,-275 47.5,-275 47.5,-275 244.5,-275 244.5,-275 250.5,-275 256.5,-281 256.5,-287 256.5,-287 256.5,-299 256.5,-299 256.5,-305 250.5,-311 244.5,-311"/>
<text text-anchor="middle" x="146" y="-290.5" font-family="Helvetica,sans-Serif" font-size="10.00">Candidate cameras\nPerspectiveCameras</text>
</g>
<!-- cams&#45;&gt;proj -->
<g id="edge13" class="edge">
<title>cams&#45;&gt;proj</title>
<path fill="none" stroke="#3b3b3b" d="M256.91,-310.39C336.98,-321.56 448.19,-334 546.5,-334 546.5,-334 546.5,-334 1294,-334 1426.08,-334 1576.41,-320.02 1681.25,-308.01"/>
<polygon fill="#3b3b3b" stroke="#3b3b3b" points="1681.73,-310.77 1689.35,-307.07 1681.08,-305.21 1681.73,-310.77"/>
</g>
<!-- evl -->
<g id="node4" class="node">
<title>evl</title>
<path fill="#ffffff" stroke="#3b3b3b" d="M264,-372C264,-372 28,-372 28,-372 22,-372 16,-366 16,-360 16,-360 16,-348 16,-348 16,-342 22,-336 28,-336 28,-336 264,-336 264,-336 270,-336 276,-342 276,-348 276,-348 276,-360 276,-360 276,-366 270,-372 264,-372"/>
<text text-anchor="middle" x="146" y="-351.5" font-family="Helvetica,sans-Serif" font-size="10.00">EVL backbone out\n(voxel heads + t_world_voxel)</text>
</g>
<!-- field_in -->
<g id="node5" class="node">
<title>field_in</title>
<path fill="#ffffff" stroke="#3b3b3b" d="M766,-439C766,-439 329,-439 329,-439 323,-439 317,-433 317,-427 317,-427 317,-415 317,-415 317,-409 323,-403 329,-403 329,-403 766,-403 766,-403 772,-403 778,-409 778,-415 778,-415 778,-427 778,-427 778,-433 772,-439 766,-439"/>
<text text-anchor="middle" x="547.5" y="-418.5" font-family="Helvetica,sans-Serif" font-size="10.00">Scene field F_in\n(occ_pr, occ_input, counts_norm,\ncent_pr, free_input, new_surface_prior)</text>
</g>
<!-- evl&#45;&gt;field_in -->
<g id="edge1" class="edge">
<title>evl&#45;&gt;field_in</title>
<path fill="none" stroke="#3b3b3b" d="M254.58,-372.04C309.1,-381.19 375.35,-392.3 430.95,-401.62"/>
<polygon fill="#3b3b3b" stroke="#3b3b3b" points="430.72,-404.42 439.07,-402.98 431.64,-398.9 430.72,-404.42"/>
</g>
<!-- voxel_frac -->
<g id="node11" class="node">
<title>voxel_frac</title>
<path fill="#ffffff" stroke="#3b3b3b" d="M1595,-527C1595,-527 1326,-527 1326,-527 1320,-527 1314,-521 1314,-515 1314,-515 1314,-503 1314,-503 1314,-497 1320,-491 1326,-491 1326,-491 1595,-491 1595,-491 1601,-491 1607,-497 1607,-503 1607,-503 1607,-515 1607,-515 1607,-521 1601,-527 1595,-527"/>
<text text-anchor="middle" x="1460.5" y="-506.5" font-family="Helvetica,sans-Serif" font-size="10.00">voxel_valid_frac_i\n(sample counts_norm @ cam center)</text>
</g>
<!-- evl&#45;&gt;voxel_frac -->
<g id="edge9" class="edge">
<title>evl&#45;&gt;voxel_frac</title>
<path fill="none" stroke="#3b3b3b" d="M170.85,-372.13C201.27,-394.35 256.28,-431.57 309,-452 409.33,-490.88 438.9,-499 546.5,-499 546.5,-499 546.5,-499 1190,-499 1227.48,-499 1267.88,-499.98 1305.7,-501.32"/>
<polygon fill="#3b3b3b" stroke="#3b3b3b" points="1305.63,-504.12 1313.73,-501.61 1305.83,-498.53 1305.63,-504.12"/>
<text text-anchor="middle" x="941.5" y="-501.8" font-family="Times,serif" font-size="9.00">gate</text>
</g>
<!-- field_proj -->
<g id="node6" class="node">
<title>field_proj</title>
<path fill="#ffffff" stroke="#3b3b3b" d="M1052,-439C1052,-439 831,-439 831,-439 825,-439 819,-433 819,-427 819,-427 819,-415 819,-415 819,-409 825,-403 831,-403 831,-403 1052,-403 1052,-403 1058,-403 1064,-409 1064,-415 1064,-415 1064,-427 1064,-427 1064,-433 1058,-439 1052,-439"/>
<text text-anchor="middle" x="941.5" y="-418.5" font-family="Helvetica,sans-Serif" font-size="10.00">Field projection\nConv3d 1×1×1 + GN + GELU</text>
</g>
<!-- field_in&#45;&gt;field_proj -->
<g id="edge2" class="edge">
<title>field_in&#45;&gt;field_proj</title>
<path fill="none" stroke="#3b3b3b" d="M778.23,-421C789.28,-421 800.19,-421 810.8,-421"/>
<polygon fill="#3b3b3b" stroke="#3b3b3b" points="810.85,-423.8 818.85,-421 810.85,-418.2 810.85,-423.8"/>
</g>
<!-- pool -->
<g id="node7" class="node">
<title>pool</title>
<path fill="#ffffff" stroke="#3b3b3b" d="M1261,-439C1261,-439 1117,-439 1117,-439 1111,-439 1105,-433 1105,-427 1105,-427 1105,-415 1105,-415 1105,-409 1111,-403 1117,-403 1117,-403 1261,-403 1261,-403 1267,-403 1273,-409 1273,-415 1273,-415 1273,-427 1273,-427 1273,-433 1267,-439 1261,-439"/>
<text text-anchor="middle" x="1189" y="-418.5" font-family="Helvetica,sans-Serif" font-size="10.00">Global tokens\npool to G×G×G</text>
</g>
<!-- field_proj&#45;&gt;pool -->
<g id="edge3" class="edge">
<title>field_proj&#45;&gt;pool</title>
<path fill="none" stroke="#3b3b3b" d="M1064.17,-421C1075.12,-421 1086.09,-421 1096.72,-421"/>
<polygon fill="#3b3b3b" stroke="#3b3b3b" points="1096.77,-423.8 1104.77,-421 1096.77,-418.2 1096.77,-423.8"/>
</g>
<!-- pos_enc -->
<g id="node8" class="node">
<title>pos_enc</title>
<path fill="#ffffff" stroke="#3b3b3b" d="M1556,-466C1556,-466 1365,-466 1365,-466 1359,-466 1353,-460 1353,-454 1353,-454 1353,-442 1353,-442 1353,-436 1359,-430 1365,-430 1365,-430 1556,-430 1556,-430 1562,-430 1568,-436 1568,-442 1568,-442 1568,-454 1568,-454 1568,-460 1562,-466 1556,-466"/>
<text text-anchor="middle" x="1460.5" y="-445.5" font-family="Helvetica,sans-Serif" font-size="10.00">Positional encoding\nLFF(x,y,z) in rig_ref</text>
</g>
<!-- pool&#45;&gt;pos_enc -->
<g id="edge6" class="edge">
<title>pool&#45;&gt;pos_enc</title>
<path fill="none" stroke="#3b3b3b" d="M1273.06,-429.32C1295.71,-431.59 1320.65,-434.09 1344.73,-436.5"/>
<polygon fill="#3b3b3b" stroke="#3b3b3b" points="1344.62,-439.3 1352.85,-437.32 1345.17,-433.73 1344.62,-439.3"/>
</g>
<!-- pool&#45;&gt;attn_global -->
<g id="edge4" class="edge">
<title>pool&#45;&gt;attn_global</title>
<path fill="none" stroke="#3b3b3b" d="M1273.04,-418.71C1286.72,-418.42 1300.76,-418.16 1314,-418 1444.21,-416.43 1476.78,-417.05 1607,-418 1624.1,-418.12 1642,-418.31 1659.8,-418.52"/>
<polygon fill="#3b3b3b" stroke="#3b3b3b" points="1659.93,-421.32 1667.97,-418.62 1660,-415.72 1659.93,-421.32"/>
</g>
<!-- pos_enc&#45;&gt;attn_global -->
<g id="edge7" class="edge">
<title>pos_enc&#45;&gt;attn_global</title>
<path fill="none" stroke="#3b3b3b" d="M1568.07,-439.83C1596.95,-437.61 1628.81,-435.17 1659.73,-432.79"/>
<polygon fill="#3b3b3b" stroke="#3b3b3b" points="1660.23,-435.56 1668,-432.16 1659.81,-429.98 1660.23,-435.56"/>
</g>
<!-- global_feat -->
<g id="node10" class="node">
<title>global_feat</title>
<path fill="#ffffff" stroke="#3b3b3b" d="M2301,-439C2301,-439 2245,-439 2245,-439 2239,-439 2233,-433 2233,-427 2233,-427 2233,-415 2233,-415 2233,-409 2239,-403 2245,-403 2245,-403 2301,-403 2301,-403 2307,-403 2313,-409 2313,-415 2313,-415 2313,-427 2313,-427 2313,-433 2307,-439 2301,-439"/>
<text text-anchor="middle" x="2273" y="-418.5" font-family="Helvetica,sans-Serif" font-size="10.00">global_feat_i</text>
</g>
<!-- attn_global&#45;&gt;global_feat -->
<g id="edge5" class="edge">
<title>attn_global&#45;&gt;global_feat</title>
<path fill="none" stroke="#3b3b3b" d="M1961.19,-421C2052.09,-421 2163.18,-421 2224.9,-421"/>
<polygon fill="#3b3b3b" stroke="#3b3b3b" points="2224.91,-423.8 2232.91,-421 2224.91,-418.2 2224.91,-423.8"/>
</g>
<!-- film -->
<g id="node15" class="node">
<title>film</title>
<path fill="#ffffff" stroke="#3b3b3b" d="M2813,-360C2813,-360 2592,-360 2592,-360 2586,-360 2580,-354 2580,-348 2580,-348 2580,-336 2580,-336 2580,-330 2586,-324 2592,-324 2592,-324 2813,-324 2813,-324 2819,-324 2825,-330 2825,-336 2825,-336 2825,-348 2825,-348 2825,-354 2819,-360 2813,-360"/>
<text text-anchor="middle" x="2702.5" y="-339.5" font-family="Helvetica,sans-Serif" font-size="10.00">FiLM(global_feat, s_i^proj)\nγ_i, β_i from stats</text>
</g>
<!-- global_feat&#45;&gt;film -->
<g id="edge16" class="edge">
<title>global_feat&#45;&gt;film</title>
<path fill="none" stroke="#3b3b3b" d="M2313.29,-418.65C2362.79,-415.22 2450.31,-407.6 2524,-393 2563.02,-385.27 2605.9,-373.05 2639.74,-362.52"/>
<polygon fill="#3b3b3b" stroke="#3b3b3b" points="2640.91,-365.09 2647.7,-360.02 2639.23,-359.74 2640.91,-365.09"/>
</g>
<!-- voxel_gate -->
<g id="node12" class="node">
<title>voxel_gate</title>
<path fill="#ffffff" stroke="#3b3b3b" d="M1910,-500C1910,-500 1719,-500 1719,-500 1713,-500 1707,-494 1707,-488 1707,-488 1707,-476 1707,-476 1707,-470 1713,-464 1719,-464 1719,-464 1910,-464 1910,-464 1916,-464 1922,-470 1922,-476 1922,-476 1922,-488 1922,-488 1922,-494 1916,-500 1910,-500"/>
<text text-anchor="middle" x="1814.5" y="-479.5" font-family="Helvetica,sans-Serif" font-size="10.00">voxel gate\nMLP(voxel_valid_frac_i)→g_i</text>
</g>
<!-- voxel_frac&#45;&gt;voxel_gate -->
<g id="edge10" class="edge">
<title>voxel_frac&#45;&gt;voxel_gate</title>
<path fill="none" stroke="#3b3b3b" d="M1607.21,-497.82C1637.73,-495.48 1669.49,-493.05 1698.69,-490.81"/>
<polygon fill="#3b3b3b" stroke="#3b3b3b" points="1699.09,-493.58 1706.86,-490.18 1698.67,-488 1699.09,-493.58"/>
<text text-anchor="middle" x="1637.5" y="-497.8" font-family="Times,serif" font-size="9.00">gate</text>
</g>
<!-- voxel_frac&#45;&gt;concat -->
<g id="edge28" class="edge">
<title>voxel_frac&#45;&gt;concat</title>
<path fill="none" stroke="#3b3b3b" d="M1607.28,-526.41C1670.56,-532.57 1745.59,-538 1813.5,-538 1813.5,-538 1813.5,-538 3027,-538 3225.49,-538 3422.29,-368.67 3489.36,-304.9"/>
<polygon fill="#3b3b3b" stroke="#3b3b3b" points="3491.61,-306.63 3495.44,-299.07 3487.73,-302.59 3491.61,-306.63"/>
</g>
<!-- voxel_gate&#45;&gt;global_feat -->
<g id="edge11" class="edge">
<title>voxel_gate&#45;&gt;global_feat</title>
<path fill="none" stroke="#3b3b3b" d="M1922.24,-467.74C2017.83,-454.96 2153.54,-436.83 2224.53,-427.34"/>
<polygon fill="#3b3b3b" stroke="#3b3b3b" points="2225.31,-430.06 2232.86,-426.23 2224.56,-424.51 2225.31,-430.06"/>
<text text-anchor="middle" x="1991.5" y="-460.8" font-family="Times,serif" font-size="9.00">gate</text>
</g>
<!-- sem_stats -->
<g id="node14" class="node">
<title>sem_stats</title>
<path fill="#ffffff" stroke="#3b3b3b" d="M2512,-360C2512,-360 2034,-360 2034,-360 2028,-360 2022,-354 2022,-348 2022,-348 2022,-336 2022,-336 2022,-330 2028,-324 2034,-324 2034,-324 2512,-324 2512,-324 2518,-324 2524,-330 2524,-336 2524,-336 2524,-348 2524,-348 2524,-354 2518,-360 2512,-360"/>
<text text-anchor="middle" x="2273" y="-339.5" font-family="Helvetica,sans-Serif" font-size="10.00">Projection stats s_i^proj\ncoverage, empty_frac,\nsemidense_candidate_vis_frac,\ndepth mean/std</text>
</g>
<!-- proj&#45;&gt;sem_stats -->
<g id="edge14" class="edge">
<title>proj&#45;&gt;sem_stats</title>
<path fill="none" stroke="#3b3b3b" d="M1939.64,-304.87C1989.74,-310.47 2048.36,-317.01 2102.29,-323.04"/>
<polygon fill="#3b3b3b" stroke="#3b3b3b" points="2102.3,-325.86 2110.56,-323.96 2102.92,-320.29 2102.3,-325.86"/>
</g>
<!-- sem_tokens -->
<g id="node16" class="node">
<title>sem_tokens</title>
<path fill="#ffffff" stroke="#3b3b3b" d="M2451,-299C2451,-299 2095,-299 2095,-299 2089,-299 2083,-293 2083,-287 2083,-287 2083,-275 2083,-275 2083,-269 2089,-263 2095,-263 2095,-263 2451,-263 2451,-263 2457,-263 2463,-269 2463,-275 2463,-275 2463,-287 2463,-287 2463,-293 2457,-299 2451,-299"/>
<text text-anchor="middle" x="2273" y="-278.5" font-family="Helvetica,sans-Serif" font-size="10.00">Frustum tokens τ_{i,k}\n(x_norm,y_norm,depth,\ninv_dist_std, obs_count)</text>
</g>
<!-- proj&#45;&gt;sem_tokens -->
<g id="edge17" class="edge">
<title>proj&#45;&gt;sem_tokens</title>
<path fill="none" stroke="#3b3b3b" d="M1939.64,-288.28C1981.23,-287.37 2028.7,-286.33 2074.48,-285.33"/>
<polygon fill="#3b3b3b" stroke="#3b3b3b" points="2074.77,-288.12 2082.71,-285.15 2074.65,-282.52 2074.77,-288.12"/>
</g>
<!-- sem_stats&#45;&gt;film -->
<g id="edge15" class="edge">
<title>sem_stats&#45;&gt;film</title>
<path fill="none" stroke="#3b3b3b" d="M2524.22,-342C2540.39,-342 2556.27,-342 2571.48,-342"/>
<polygon fill="#3b3b3b" stroke="#3b3b3b" points="2571.86,-344.8 2579.86,-342 2571.86,-339.2 2571.86,-344.8"/>
</g>
<!-- sem_stats&#45;&gt;concat -->
<g id="edge24" class="edge">
<title>sem_stats&#45;&gt;concat</title>
<path fill="none" stroke="#3b3b3b" d="M2414.74,-360.04C2462.37,-365.33 2515.91,-370.39 2565,-373 2837.87,-387.49 2908.26,-377.99 3179,-341 3259.47,-330 3350.11,-313.49 3416.73,-300.56"/>
<polygon fill="#3b3b3b" stroke="#3b3b3b" points="3417.41,-303.28 3424.73,-299.01 3416.34,-297.79 3417.41,-303.28"/>
</g>
<!-- film&#45;&gt;concat -->
<g id="edge23" class="edge">
<title>film&#45;&gt;concat</title>
<path fill="none" stroke="#3b3b3b" d="M2825.23,-335.31C2921.34,-329.79 3058.8,-321.36 3179,-312 3225.17,-308.4 3274.88,-304.06 3321.5,-299.77"/>
<polygon fill="#3b3b3b" stroke="#3b3b3b" points="3321.84,-302.55 3329.55,-299.03 3321.33,-296.97 3321.84,-302.55"/>
</g>
<!-- sem_tokens&#45;&gt;sem_attn -->
<g id="edge18" class="edge">
<title>sem_tokens&#45;&gt;sem_attn</title>
<path fill="none" stroke="#3b3b3b" d="M2463.06,-281C2494.56,-281 2526.78,-281 2556.93,-281"/>
<polygon fill="#3b3b3b" stroke="#3b3b3b" points="2556.97,-283.8 2564.97,-281 2556.97,-278.2 2556.97,-283.8"/>
</g>
<!-- sem_frustum -->
<g id="node18" class="node">
<title>sem_frustum</title>
<path fill="#ffffff" stroke="#3b3b3b" d="M3052.5,-299C3052.5,-299 2999.5,-299 2999.5,-299 2993.5,-299 2987.5,-293 2987.5,-287 2987.5,-287 2987.5,-275 2987.5,-275 2987.5,-269 2993.5,-263 2999.5,-263 2999.5,-263 3052.5,-263 3052.5,-263 3058.5,-263 3064.5,-269 3064.5,-275 3064.5,-275 3064.5,-287 3064.5,-287 3064.5,-293 3058.5,-299 3052.5,-299"/>
<text text-anchor="middle" x="3026" y="-278.5" font-family="Helvetica,sans-Serif" font-size="10.00">s_i^frustum</text>
</g>
<!-- sem_attn&#45;&gt;sem_frustum -->
<g id="edge19" class="edge">
<title>sem_attn&#45;&gt;sem_frustum</title>
<path fill="none" stroke="#3b3b3b" d="M2840.31,-281C2889.83,-281 2942.46,-281 2978.81,-281"/>
<polygon fill="#3b3b3b" stroke="#3b3b3b" points="2979.23,-283.8 2987.23,-281 2979.23,-278.2 2979.23,-283.8"/>
</g>
<!-- sem_frustum&#45;&gt;concat -->
<g id="edge25" class="edge">
<title>sem_frustum&#45;&gt;concat</title>
<path fill="none" stroke="#3b3b3b" d="M3064.77,-281C3097.43,-281 3148.07,-281 3203.74,-281"/>
<polygon fill="#3b3b3b" stroke="#3b3b3b" points="3203.99,-283.8 3211.99,-281 3203.99,-278.2 3203.99,-283.8"/>
</g>
<!-- traj&#45;&gt;concat -->
<g id="edge26" class="edge">
<title>traj&#45;&gt;concat</title>
<path fill="none" stroke="#3b3b3b" d="M3077.67,-113.06C3110.37,-124.81 3153.79,-140.57 3192,-155 3287.12,-190.93 3397.32,-234.56 3460.87,-259.91"/>
<polygon fill="#3b3b3b" stroke="#3b3b3b" points="3459.91,-262.54 3468.38,-262.91 3461.99,-257.34 3459.91,-262.54"/>
</g>
<!-- pointnext&#45;&gt;concat -->
<g id="edge27" class="edge">
<title>pointnext&#45;&gt;concat</title>
<path fill="none" stroke="#3b3b3b" d="M3139.65,-52.03C3153.13,-55.63 3166.53,-59.91 3179,-65 3302.94,-115.55 3430.75,-213.2 3485.68,-257.79"/>
<polygon fill="#3b3b3b" stroke="#3b3b3b" points="3484.04,-260.06 3492.01,-262.95 3487.58,-255.72 3484.04,-260.06"/>
</g>
<!-- mlp -->
<g id="node22" class="node">
<title>mlp</title>
<path fill="#ffffff" stroke="#3b3b3b" d="M3900,-299C3900,-299 3870,-299 3870,-299 3864,-299 3858,-293 3858,-287 3858,-287 3858,-275 3858,-275 3858,-269 3864,-263 3870,-263 3870,-263 3900,-263 3900,-263 3906,-263 3912,-269 3912,-275 3912,-275 3912,-287 3912,-287 3912,-293 3906,-299 3900,-299"/>
<text text-anchor="middle" x="3885" y="-278.5" font-family="Helvetica,sans-Serif" font-size="10.00">MLP</text>
</g>
<!-- concat&#45;&gt;mlp -->
<g id="edge30" class="edge">
<title>concat&#45;&gt;mlp</title>
<path fill="none" stroke="#3b3b3b" d="M3817.27,-281C3829.34,-281 3840.26,-281 3849.6,-281"/>
<polygon fill="#3b3b3b" stroke="#3b3b3b" points="3849.72,-283.8 3857.72,-281 3849.72,-278.2 3849.72,-283.8"/>
</g>
<!-- coral -->
<g id="node23" class="node">
<title>coral</title>
<path fill="#ffffff" stroke="#3b3b3b" d="M4122,-299C4122,-299 3965,-299 3965,-299 3959,-299 3953,-293 3953,-287 3953,-287 3953,-275 3953,-275 3953,-269 3959,-263 3965,-263 3965,-263 4122,-263 4122,-263 4128,-263 4134,-269 4134,-275 4134,-275 4134,-287 4134,-287 4134,-293 4128,-299 4122,-299"/>
<text text-anchor="middle" x="4043.5" y="-278.5" font-family="Helvetica,sans-Serif" font-size="10.00">CORAL ordinal head\n(K−1 logits)</text>
</g>
<!-- mlp&#45;&gt;coral -->
<g id="edge31" class="edge">
<title>mlp&#45;&gt;coral</title>
<path fill="none" stroke="#3b3b3b" d="M3912.19,-281C3921.53,-281 3932.67,-281 3944.45,-281"/>
<polygon fill="#3b3b3b" stroke="#3b3b3b" points="3944.69,-283.8 3952.69,-281 3944.69,-278.2 3944.69,-283.8"/>
</g>
<!-- out -->
<g id="node24" class="node">
<title>out</title>
<path fill="#ffffff" stroke="#3b3b3b" d="M4345,-299C4345,-299 4187,-299 4187,-299 4181,-299 4175,-293 4175,-287 4175,-287 4175,-275 4175,-275 4175,-269 4181,-263 4187,-263 4187,-263 4345,-263 4345,-263 4351,-263 4357,-269 4357,-275 4357,-275 4357,-287 4357,-287 4357,-293 4351,-299 4345,-299"/>
<text text-anchor="middle" x="4266" y="-278.5" font-family="Helvetica,sans-Serif" font-size="10.00">Outputs\nRRI bins + expected RRI</text>
</g>
<!-- coral&#45;&gt;out -->
<g id="edge32" class="edge">
<title>coral&#45;&gt;out</title>
<path fill="none" stroke="#3b3b3b" d="M4134.19,-281C4144.83,-281 4155.73,-281 4166.49,-281"/>
<polygon fill="#3b3b3b" stroke="#3b3b3b" points="4166.68,-283.8 4174.68,-281 4166.68,-278.2 4166.68,-283.8"/>
</g>
</g>
</svg>
