<svg xmlns="http://www.w3.org/2000/svg" xmlns:xlink="http://www.w3.org/1999/xlink" contentStyleType="text/css" height="1445px" preserveAspectRatio="none" style="width:901px;height:1445px;background:#FFFFFF;" version="1.1" viewBox="0 0 901 1445" width="901px" zoomAndPan="magnify"><defs/><g><rect fill="#FFFFFF" height="31.706" style="stroke:#000000;stroke-width:1;" width="10" x="293.6591" y="164.4799"/><rect fill="#FFFFFF" height="31.706" style="stroke:#000000;stroke-width:1;" width="10" x="449.1687" y="668.0702"/><rect fill="#FFFFFF" height="31.706" style="stroke:#000000;stroke-width:1;" width="10" x="612.5182" y="763.1882"/><rect fill="#FFFFFF" height="31.706" style="stroke:#000000;stroke-width:1;" width="10" x="729.899" y="858.3063"/><rect fill="#FFFFFF" height="31.706" style="stroke:#000000;stroke-width:1;" width="10" x="826.3918" y="400.4221"/><line style="stroke:#000000;stroke-width:1;" x1="28" x2="28" y1="85.0679" y2="1361.1905"/><line style="stroke:#000000;stroke-width:1;" x1="297.8573" x2="297.8573" y1="85.0679" y2="1361.1905"/><line style="stroke:#000000;stroke-width:1;" x1="453.4609" x2="453.4609" y1="85.0679" y2="1361.1905"/><line style="stroke:#000000;stroke-width:1;" x1="616.8765" x2="616.8765" y1="85.0679" y2="1361.1905"/><line style="stroke:#000000;stroke-width:1;" x1="734.16" x2="734.16" y1="85.0679" y2="1361.1905"/><line style="stroke:#000000;stroke-width:1;" x1="830.6379" x2="830.6379" y1="85.0679" y2="1361.1905"/><text fill="#000000" font-family="Verdana" font-size="14" lengthAdjust="spacing" textLength="30.6179" x="10" y="80.9659">User</text><ellipse cx="28.3089" cy="14" fill="#FFFFFF" rx="8" ry="8" style="stroke:#000000;stroke-width:1;"/><path d="M28.3089,22 L28.3089,49 M15.3089,30 L41.3089,30 M28.3089,49 L15.3089,64 M28.3089,49 L41.3089,64 " fill="none" style="stroke:#000000;stroke-width:1;"/><text fill="#000000" font-family="Verdana" font-size="14" lengthAdjust="spacing" textLength="30.6179" x="10" y="1375.1565">User</text><ellipse cx="28.3089" cy="1388.2584" fill="#FFFFFF" rx="8" ry="8" style="stroke:#000000;stroke-width:1;"/><path d="M28.3089,1396.2584 L28.3089,1423.2584 M15.3089,1404.2584 L41.3089,1404.2584 M28.3089,1423.2584 L15.3089,1438.2584 M28.3089,1423.2584 L41.3089,1438.2584 " fill="none" style="stroke:#000000;stroke-width:1;"/><rect fill="#FFFFFF" height="33.0679" rx="2.5" ry="2.5" style="stroke:#000000;stroke-width:1;" width="121.6036" x="237.8573" y="51"/><text fill="#000000" font-family="Verdana" font-size="14" lengthAdjust="spacing" textLength="107.6036" x="244.8573" y="72.9659">VrsDataProvider</text><rect fill="#FFFFFF" height="33.0679" rx="2.5" ry="2.5" style="stroke:#000000;stroke-width:1;" width="121.6036" x="237.8573" y="1360.1905"/><text fill="#000000" font-family="Verdana" font-size="14" lengthAdjust="spacing" textLength="107.6036" x="244.8573" y="1382.1565">VrsDataProvider</text><rect fill="#FFFFFF" height="33.0679" rx="2.5" ry="2.5" style="stroke:#000000;stroke-width:1;" width="129.4155" x="389.4609" y="51"/><text fill="#000000" font-family="Verdana" font-size="14" lengthAdjust="spacing" textLength="115.4155" x="396.4609" y="72.9659">DeviceCalibration</text><rect fill="#FFFFFF" height="33.0679" rx="2.5" ry="2.5" style="stroke:#000000;stroke-width:1;" width="129.4155" x="389.4609" y="1360.1905"/><text fill="#000000" font-family="Verdana" font-size="14" lengthAdjust="spacing" textLength="115.4155" x="396.4609" y="1382.1565">DeviceCalibration</text><rect fill="#FFFFFF" height="33.0679" rx="2.5" ry="2.5" style="stroke:#000000;stroke-width:1;" width="137.2835" x="548.8765" y="51"/><text fill="#000000" font-family="Verdana" font-size="14" lengthAdjust="spacing" textLength="123.2835" x="555.8765" y="72.9659">CameraCalibration</text><rect fill="#FFFFFF" height="33.0679" rx="2.5" ry="2.5" style="stroke:#000000;stroke-width:1;" width="137.2835" x="548.8765" y="1360.1905"/><text fill="#000000" font-family="Verdana" font-size="14" lengthAdjust="spacing" textLength="123.2835" x="555.8765" y="1382.1565">CameraCalibration</text><rect fill="#FFFFFF" height="33.0679" rx="2.5" ry="2.5" style="stroke:#000000;stroke-width:1;" width="37.4779" x="716.16" y="51"/><text fill="#000000" font-family="Verdana" font-size="14" lengthAdjust="spacing" textLength="23.4779" x="723.16" y="72.9659">SE3</text><rect fill="#FFFFFF" height="33.0679" rx="2.5" ry="2.5" style="stroke:#000000;stroke-width:1;" width="37.4779" x="716.16" y="1360.1905"/><text fill="#000000" font-family="Verdana" font-size="14" lengthAdjust="spacing" textLength="23.4779" x="723.16" y="1382.1565">SE3</text><rect fill="#FFFFFF" height="33.0679" rx="2.5" ry="2.5" style="stroke:#000000;stroke-width:1;" width="95.5077" x="783.6379" y="51"/><text fill="#000000" font-family="Verdana" font-size="14" lengthAdjust="spacing" textLength="81.5077" x="790.6379" y="72.9659">ASE Readers</text><rect fill="#FFFFFF" height="33.0679" rx="2.5" ry="2.5" style="stroke:#000000;stroke-width:1;" width="95.5077" x="783.6379" y="1360.1905"/><text fill="#000000" font-family="Verdana" font-size="14" lengthAdjust="spacing" textLength="81.5077" x="790.6379" y="1382.1565">ASE Readers</text><rect fill="#FFFFFF" height="31.706" style="stroke:#000000;stroke-width:1;" width="10" x="293.6591" y="164.4799"/><rect fill="#FFFFFF" height="31.706" style="stroke:#000000;stroke-width:1;" width="10" x="449.1687" y="668.0702"/><rect fill="#FFFFFF" height="31.706" style="stroke:#000000;stroke-width:1;" width="10" x="612.5182" y="763.1882"/><rect fill="#FFFFFF" height="31.706" style="stroke:#000000;stroke-width:1;" width="10" x="729.899" y="858.3063"/><rect fill="#FFFFFF" height="31.706" style="stroke:#000000;stroke-width:1;" width="10" x="826.3918" y="400.4221"/><rect fill="#FFFFFF" height="3" style="stroke:#FFFFFF;stroke-width:1;" width="889.1456" x="5" y="116.9209"/><line style="stroke:#000000;stroke-width:0.5;" x1="5" x2="894.1456" y1="116.9209" y2="116.9209"/><line style="stroke:#000000;stroke-width:0.5;" x1="5" x2="894.1456" y1="119.9209" y2="119.9209"/><rect fill="#FFFFFF" height="25.706" style="stroke:#000000;stroke-width:1;" width="131.5071" x="383.8193" y="105.0679"/><text fill="#000000" font-family="Verdana" font-size="13" font-weight="bold" lengthAdjust="spacing" textLength="114.1271" x="389.8193" y="122.9649">VRS Data Loading</text><polygon fill="#000000" points="281.6591,160.4799,291.6591,164.4799,281.6591,168.4799,285.6591,164.4799" style="stroke:#000000;stroke-width:1;"/><line style="stroke:#000000;stroke-width:1;" x1="28.3089" x2="287.6591" y1="164.4799" y2="164.4799"/><text fill="#000000" font-family="Verdana" font-size="13" lengthAdjust="spacing" textLength="212.7192" x="35.3089" y="158.6709">create_vrs_data_provider(vrs_path)</text><polygon fill="#000000" points="39.3089,192.186,29.3089,196.186,39.3089,200.186,35.3089,196.186" style="stroke:#000000;stroke-width:1;"/><line style="stroke:#000000;stroke-width:1;stroke-dasharray:2.0,2.0;" x1="33.3089" x2="297.6591" y1="196.186" y2="196.186"/><text fill="#000000" font-family="Verdana" font-size="13" lengthAdjust="spacing" textLength="51.883" x="45.3089" y="190.377">provider</text><polygon fill="#000000" points="286.6591,223.892,296.6591,227.892,286.6591,231.892,290.6591,227.892" style="stroke:#000000;stroke-width:1;"/><line style="stroke:#000000;stroke-width:1;" x1="28.3089" x2="292.6591" y1="227.892" y2="227.892"/><text fill="#000000" font-family="Verdana" font-size="13" lengthAdjust="spacing" textLength="246.3502" x="35.3089" y="222.083">get_stream_id_from_label("camera-rgb")</text><polygon fill="#000000" points="39.3089,255.598,29.3089,259.598,39.3089,263.598,35.3089,259.598" style="stroke:#000000;stroke-width:1;"/><line style="stroke:#000000;stroke-width:1;stroke-dasharray:2.0,2.0;" x1="33.3089" x2="297.6591" y1="259.598" y2="259.598"/><text fill="#000000" font-family="Verdana" font-size="13" lengthAdjust="spacing" textLength="60.19" x="45.3089" y="253.789">stream_id</text><polygon fill="#000000" points="286.6591,287.304,296.6591,291.304,286.6591,295.304,290.6591,291.304" style="stroke:#000000;stroke-width:1;"/><line style="stroke:#000000;stroke-width:1;" x1="28.3089" x2="292.6591" y1="291.304" y2="291.304"/><text fill="#000000" font-family="Verdana" font-size="13" lengthAdjust="spacing" textLength="239.0182" x="35.3089" y="285.495">get_image_data_by_index(stream_id, 0)</text><polygon fill="#000000" points="39.3089,319.01,29.3089,323.01,39.3089,327.01,35.3089,323.01" style="stroke:#000000;stroke-width:1;"/><line style="stroke:#000000;stroke-width:1;stroke-dasharray:2.0,2.0;" x1="33.3089" x2="297.6591" y1="323.01" y2="323.01"/><text fill="#000000" font-family="Verdana" font-size="13" lengthAdjust="spacing" textLength="126.0091" x="45.3089" y="317.201">(image_data, record)</text><rect fill="#FFFFFF" height="3" style="stroke:#FFFFFF;stroke-width:1;" width="889.1456" x="5" y="352.863"/><line style="stroke:#000000;stroke-width:0.5;" x1="5" x2="894.1456" y1="352.863" y2="352.863"/><line style="stroke:#000000;stroke-width:0.5;" x1="5" x2="894.1456" y1="355.863" y2="355.863"/><rect fill="#FFFFFF" height="25.706" style="stroke:#000000;stroke-width:1;" width="130.7271" x="384.2093" y="341.01"/><text fill="#000000" font-family="Verdana" font-size="13" font-weight="bold" lengthAdjust="spacing" textLength="113.3471" x="390.2093" y="358.907">ASE Data Loading</text><polygon fill="#000000" points="814.3918,396.4221,824.3918,400.4221,814.3918,404.4221,818.3918,400.4221" style="stroke:#000000;stroke-width:1;"/><line style="stroke:#000000;stroke-width:1;" x1="28.3089" x2="820.3918" y1="400.4221" y2="400.4221"/><text fill="#000000" font-family="Verdana" font-size="13" lengthAdjust="spacing" textLength="170.2351" x="35.3089" y="394.6131">read_trajectory_file(traj_csv)</text><polygon fill="#000000" points="39.3089,428.1281,29.3089,432.1281,39.3089,436.1281,35.3089,432.1281" style="stroke:#000000;stroke-width:1;"/><line style="stroke:#000000;stroke-width:1;stroke-dasharray:2.0,2.0;" x1="33.3089" x2="830.3918" y1="432.1281" y2="432.1281"/><text fill="#000000" font-family="Verdana" font-size="13" lengthAdjust="spacing" textLength="230.3992" x="45.3089" y="426.3191">{"Ts_world_from_device": List[SE3], ...}</text><polygon fill="#000000" points="819.3918,459.8341,829.3918,463.8341,819.3918,467.8341,823.3918,463.8341" style="stroke:#000000;stroke-width:1;"/><line style="stroke:#000000;stroke-width:1;" x1="28.3089" x2="825.3918" y1="463.8341" y2="463.8341"/><text fill="#000000" font-family="Verdana" font-size="13" lengthAdjust="spacing" textLength="186.9012" x="35.3089" y="458.0251">read_points_file(points_csv_gz)</text><polygon fill="#000000" points="39.3089,491.5401,29.3089,495.5401,39.3089,499.5401,35.3089,495.5401" style="stroke:#000000;stroke-width:1;"/><line style="stroke:#000000;stroke-width:1;stroke-dasharray:2.0,2.0;" x1="33.3089" x2="830.3918" y1="495.5401" y2="495.5401"/><text fill="#000000" font-family="Verdana" font-size="13" lengthAdjust="spacing" textLength="80.7171" x="45.3089" y="489.7311">ndarray[N, 3]</text><polygon fill="#000000" points="819.3918,523.2461,829.3918,527.2461,819.3918,531.2461,823.3918,527.2461" style="stroke:#000000;stroke-width:1;"/><line style="stroke:#000000;stroke-width:1;" x1="28.3089" x2="825.3918" y1="527.2461" y2="527.2461"/><text fill="#000000" font-family="Verdana" font-size="13" lengthAdjust="spacing" textLength="202.5402" x="35.3089" y="521.4371">read_language_file(language_txt)</text><polygon fill="#000000" points="39.3089,554.9521,29.3089,558.9521,39.3089,562.9521,35.3089,558.9521" style="stroke:#000000;stroke-width:1;"/><line style="stroke:#000000;stroke-width:1;stroke-dasharray:2.0,2.0;" x1="33.3089" x2="830.3918" y1="558.9521" y2="558.9521"/><text fill="#000000" font-family="Verdana" font-size="13" lengthAdjust="spacing" textLength="117.0261" x="45.3089" y="553.1431">List[(cmd, params)]</text><rect fill="#FFFFFF" height="3" style="stroke:#FFFFFF;stroke-width:1;" width="889.1456" x="5" y="588.8052"/><line style="stroke:#000000;stroke-width:0.5;" x1="5" x2="894.1456" y1="588.8052" y2="588.8052"/><line style="stroke:#000000;stroke-width:0.5;" x1="5" x2="894.1456" y1="591.8052" y2="591.8052"/><rect fill="#FFFFFF" height="25.706" style="stroke:#000000;stroke-width:1;" width="180.6211" x="359.2623" y="576.9521"/><text fill="#000000" font-family="Verdana" font-size="13" font-weight="bold" lengthAdjust="spacing" textLength="163.2411" x="365.2623" y="594.8492">Calibration &amp; Transforms</text><polygon fill="#000000" points="286.6591,632.3642,296.6591,636.3642,286.6591,640.3642,290.6591,636.3642" style="stroke:#000000;stroke-width:1;"/><line style="stroke:#000000;stroke-width:1;" x1="28.3089" x2="292.6591" y1="636.3642" y2="636.3642"/><text fill="#000000" font-family="Verdana" font-size="13" lengthAdjust="spacing" textLength="143.0651" x="35.3089" y="630.5552">get_device_calibration()</text><polygon fill="#000000" points="437.1687,664.0702,447.1687,668.0702,437.1687,672.0702,441.1687,668.0702" style="stroke:#000000;stroke-width:1;"/><line style="stroke:#000000;stroke-width:1;" x1="298.6591" x2="443.1687" y1="668.0702" y2="668.0702"/><text fill="#000000" font-family="Verdana" font-size="13" lengthAdjust="spacing" textLength="38.259" x="305.6591" y="662.2612">create</text><polygon fill="#000000" points="39.3089,695.7762,29.3089,699.7762,39.3089,703.7762,35.3089,699.7762" style="stroke:#000000;stroke-width:1;"/><line style="stroke:#000000;stroke-width:1;stroke-dasharray:2.0,2.0;" x1="33.3089" x2="453.1687" y1="699.7762" y2="699.7762"/><text fill="#000000" font-family="Verdana" font-size="13" lengthAdjust="spacing" textLength="72.8651" x="45.3089" y="693.9672">device_calib</text><polygon fill="#000000" points="442.1687,727.4822,452.1687,731.4822,442.1687,735.4822,446.1687,731.4822" style="stroke:#000000;stroke-width:1;"/><line style="stroke:#000000;stroke-width:1;" x1="28.3089" x2="448.1687" y1="731.4822" y2="731.4822"/><text fill="#000000" font-family="Verdana" font-size="13" lengthAdjust="spacing" textLength="195.1171" x="35.3089" y="725.6732">get_camera_calib("camera-rgb")</text><polygon fill="#000000" points="600.5182,759.1882,610.5182,763.1882,600.5182,767.1882,604.5182,763.1882" style="stroke:#000000;stroke-width:1;"/><line style="stroke:#000000;stroke-width:1;" x1="454.1687" x2="606.5182" y1="763.1882" y2="763.1882"/><text fill="#000000" font-family="Verdana" font-size="13" lengthAdjust="spacing" textLength="38.259" x="461.1687" y="757.3792">create</text><polygon fill="#000000" points="39.3089,790.8943,29.3089,794.8943,39.3089,798.8943,35.3089,794.8943" style="stroke:#000000;stroke-width:1;"/><line style="stroke:#000000;stroke-width:1;stroke-dasharray:2.0,2.0;" x1="33.3089" x2="616.5182" y1="794.8943" y2="794.8943"/><text fill="#000000" font-family="Verdana" font-size="13" lengthAdjust="spacing" textLength="79.69" x="45.3089" y="789.0853">camera_calib</text><polygon fill="#000000" points="605.5182,822.6003,615.5182,826.6003,605.5182,830.6003,609.5182,826.6003" style="stroke:#000000;stroke-width:1;"/><line style="stroke:#000000;stroke-width:1;" x1="28.3089" x2="611.5182" y1="826.6003" y2="826.6003"/><text fill="#000000" font-family="Verdana" font-size="13" lengthAdjust="spacing" textLength="191.1521" x="35.3089" y="820.7913">get_transform_device_camera()</text><polygon fill="#000000" points="717.899,854.3063,727.899,858.3063,717.899,862.3063,721.899,858.3063" style="stroke:#000000;stroke-width:1;"/><line style="stroke:#000000;stroke-width:1;" x1="617.5182" x2="723.899" y1="858.3063" y2="858.3063"/><text fill="#000000" font-family="Verdana" font-size="13" lengthAdjust="spacing" textLength="76.3881" x="624.5182" y="852.4973">SE3 instance</text><polygon fill="#000000" points="39.3089,886.0123,29.3089,890.0123,39.3089,894.0123,35.3089,890.0123" style="stroke:#000000;stroke-width:1;"/><line style="stroke:#000000;stroke-width:1;stroke-dasharray:2.0,2.0;" x1="33.3089" x2="733.899" y1="890.0123" y2="890.0123"/><text fill="#000000" font-family="Verdana" font-size="13" lengthAdjust="spacing" textLength="103.3111" x="45.3089" y="884.2033">T_device_camera</text><rect fill="#FFFFFF" height="3" style="stroke:#FFFFFF;stroke-width:1;" width="889.1456" x="5" y="919.8653"/><line style="stroke:#000000;stroke-width:0.5;" x1="5" x2="894.1456" y1="919.8653" y2="919.8653"/><line style="stroke:#000000;stroke-width:0.5;" x1="5" x2="894.1456" y1="922.8653" y2="922.8653"/><rect fill="#FFFFFF" height="25.706" style="stroke:#000000;stroke-width:1;" width="150.1491" x="374.4982" y="908.0123"/><text fill="#000000" font-family="Verdana" font-size="13" font-weight="bold" lengthAdjust="spacing" textLength="132.7691" x="380.4982" y="925.9093">Projection Workflow</text><polygon fill="#000000" points="722.899,963.4243,732.899,967.4243,722.899,971.4243,726.899,967.4243" style="stroke:#000000;stroke-width:1;"/><line style="stroke:#000000;stroke-width:1;" x1="28.3089" x2="728.899" y1="967.4243" y2="967.4243"/><text fill="#000000" font-family="Verdana" font-size="13" lengthAdjust="spacing" textLength="438.7114" x="35.3089" y="961.6153">T_camera_world = T_device_camera.inverse() @ T_world_device.inverse()</text><polygon fill="#000000" points="39.3089,995.1304,29.3089,999.1304,39.3089,1003.1304,35.3089,999.1304" style="stroke:#000000;stroke-width:1;"/><line style="stroke:#000000;stroke-width:1;stroke-dasharray:2.0,2.0;" x1="33.3089" x2="733.899" y1="999.1304" y2="999.1304"/><text fill="#000000" font-family="Verdana" font-size="13" lengthAdjust="spacing" textLength="99.2551" x="45.3089" y="993.3214">T_camera_world</text><polygon fill="#000000" points="722.899,1026.8364,732.899,1030.8364,722.899,1034.8364,726.899,1030.8364" style="stroke:#000000;stroke-width:1;"/><line style="stroke:#000000;stroke-width:1;" x1="28.3089" x2="728.899" y1="1030.8364" y2="1030.8364"/><text fill="#000000" font-family="Verdana" font-size="13" lengthAdjust="spacing" textLength="287.8073" x="35.3089" y="1025.0274">point_camera = T_camera_world @ point_world</text><polygon fill="#000000" points="39.3089,1058.5424,29.3089,1062.5424,39.3089,1066.5424,35.3089,1062.5424" style="stroke:#000000;stroke-width:1;"/><line style="stroke:#000000;stroke-width:1;stroke-dasharray:2.0,2.0;" x1="33.3089" x2="733.899" y1="1062.5424" y2="1062.5424"/><text fill="#000000" font-family="Verdana" font-size="13" lengthAdjust="spacing" textLength="83.3951" x="45.3089" y="1056.7334">point_camera</text><polygon fill="#000000" points="605.5182,1090.2484,615.5182,1094.2484,605.5182,1098.2484,609.5182,1094.2484" style="stroke:#000000;stroke-width:1;"/><line style="stroke:#000000;stroke-width:1;" x1="28.3089" x2="611.5182" y1="1094.2484" y2="1094.2484"/><text fill="#000000" font-family="Verdana" font-size="13" lengthAdjust="spacing" textLength="134.0431" x="35.3089" y="1088.4394">project(point_camera)</text><polygon fill="#000000" points="39.3089,1121.9544,29.3089,1125.9544,39.3089,1129.9544,35.3089,1125.9544" style="stroke:#000000;stroke-width:1;"/><line style="stroke:#000000;stroke-width:1;stroke-dasharray:2.0,2.0;" x1="33.3089" x2="616.5182" y1="1125.9544" y2="1125.9544"/><text fill="#000000" font-family="Verdana" font-size="13" lengthAdjust="spacing" textLength="109.3821" x="45.3089" y="1120.1454">pixel [u, v] | None</text><rect fill="#FFFFFF" height="3" style="stroke:#FFFFFF;stroke-width:1;" width="889.1456" x="5" y="1155.8074"/><line style="stroke:#000000;stroke-width:0.5;" x1="5" x2="894.1456" y1="1155.8074" y2="1155.8074"/><line style="stroke:#000000;stroke-width:0.5;" x1="5" x2="894.1456" y1="1158.8074" y2="1158.8074"/><rect fill="#FFFFFF" height="25.706" style="stroke:#000000;stroke-width:1;" width="168.5831" x="365.2812" y="1143.9544"/><text fill="#000000" font-family="Verdana" font-size="13" font-weight="bold" lengthAdjust="spacing" textLength="151.2031" x="371.2812" y="1161.8514">Unprojection Workflow</text><polygon fill="#000000" points="605.5182,1199.3665,615.5182,1203.3665,605.5182,1207.3665,609.5182,1203.3665" style="stroke:#000000;stroke-width:1;"/><line style="stroke:#000000;stroke-width:1;" x1="28.3089" x2="611.5182" y1="1203.3665" y2="1203.3665"/><text fill="#000000" font-family="Verdana" font-size="13" lengthAdjust="spacing" textLength="96.7721" x="35.3089" y="1197.5575">unproject([u, v])</text><polygon fill="#000000" points="39.3089,1231.0725,29.3089,1235.0725,39.3089,1239.0725,35.3089,1235.0725" style="stroke:#000000;stroke-width:1;"/><line style="stroke:#000000;stroke-width:1;stroke-dasharray:2.0,2.0;" x1="33.3089" x2="616.5182" y1="1235.0725" y2="1235.0725"/><text fill="#000000" font-family="Verdana" font-size="13" lengthAdjust="spacing" textLength="111.6051" x="45.3089" y="1229.2635">ray [x, y, z] | None</text><line style="stroke:#000000;stroke-width:1;" x1="28.3089" x2="70.3089" y1="1266.7785" y2="1266.7785"/><line style="stroke:#000000;stroke-width:1;" x1="70.3089" x2="70.3089" y1="1266.7785" y2="1279.7785"/><line style="stroke:#000000;stroke-width:1;" x1="29.3089" x2="70.3089" y1="1279.7785" y2="1279.7785"/><polygon fill="#000000" points="39.3089,1275.7785,29.3089,1279.7785,39.3089,1283.7785,35.3089,1279.7785" style="stroke:#000000;stroke-width:1;"/><text fill="#000000" font-family="Verdana" font-size="13" lengthAdjust="spacing" textLength="136.6041" x="35.3089" y="1260.9695">point_3d = depth * ray</text><polygon fill="#000000" points="722.899,1307.4845,732.899,1311.4845,722.899,1315.4845,726.899,1311.4845" style="stroke:#000000;stroke-width:1;"/><line style="stroke:#000000;stroke-width:1;" x1="28.3089" x2="728.899" y1="1311.4845" y2="1311.4845"/><text fill="#000000" font-family="Verdana" font-size="13" lengthAdjust="spacing" textLength="257.5562" x="35.3089" y="1305.6755">point_world = T_world_camera @ point_3d</text><polygon fill="#000000" points="39.3089,1339.1905,29.3089,1343.1905,39.3089,1347.1905,35.3089,1343.1905" style="stroke:#000000;stroke-width:1;"/><line style="stroke:#000000;stroke-width:1;stroke-dasharray:2.0,2.0;" x1="33.3089" x2="733.899" y1="1343.1905" y2="1343.1905"/><text fill="#000000" font-family="Verdana" font-size="13" lengthAdjust="spacing" textLength="72.5141" x="45.3089" y="1337.3815">point_world</text><!--SRC=[VLJ1Zjem4BtdAwOSggGAg18t911LsDjgjLhOxG4XQqWCk4sSo3PPsBR_Nji9YHDW3qWaVlFUp9ldV547cb4eKcJSyp1MkO1NIOLNe50iPWLo1OCt8HUey5da9Kke601AU5iyTq4BMhAOHfYohK35ScvXYwYBYZ2Z0lkeg8TQFepj-vL0BdUvoBh7FvOFy49Hjo8jJ3zxtdGARozBC8t2Ouu9utkOJZqp3Gndfjy9n8AYegGKaYGQHufw8j-yAL0T0kC1ApN83gX_CDJ5XcG25xINq0wggx6dYaYbXJB24h8JUKPItDBK7yHszg7ORmT1Zxefk476CjpJgj_jcJ2Uq9FVu4FutkVosu8G18rpaGJM7cFRFNlqsKI3CI5Au2zgWd0cEvPItpoJM9QEDSPlGzPg_Xci97dFHLfFdDWm32RmoAHQwtLkGXYDHlzSw-pMhlMBd74bA-twlrOd-u-WfyaJ50BFwwSGnfjRJ2do_T5OORcQ9tLIVIhRfHzdsauTDCnaiB6EEJc5hsqQvLMmp9wgcKdSrlZrQcRw6bp2rxgehyOYSffmwrsVDAuHCpn6gufIXUq5ot3Ez8sw5jItB785NH9NC784erfGNMPlnpJ5UiB8wZNUJ41l6nYN2ddiYBTNkVddjBBgqhhTj8Lc8_eRPD9f5l8p5xztQVxkBiDfOtKnoSOIfdsD4UEb_e1GFu2vFgl2Mo7QeplDkipUBN4Rt1fcfJkzpElpglwMX5lVNKPH6U2xYA2xruATQ0hhOmZb1lx2KywfzUwL5v-xP_YF5v1V4VIuzOM3zIc4SmWVBVc5m6r-R3nFQA4EyCsKtRUfNL2rXDgsUKFqYKMLXVy1]--></g></svg>